<svg width="3684" height="2847" viewBox="0 0 3684 2847" fill="none" xmlns="http://www.w3.org/2000/svg">
<g clip-path="url(#clip0_2014_236)">
<rect width="3684" height="2847" fill="#F1F0FD"/>
<rect x="161" y="327" width="3523" height="2739" fill="#F1F0FD"/>
<rect x="161" y="327" width="3523" height="2739" stroke="#141313"/>
<path d="M490 1299V1039H566V1299H490Z" fill="#ADD9A8"/>
<path d="M490 1837V1577H566V1837H490Z" fill="#ADD9A8"/>
<path d="M2955.7 2450L2955.7 2042.25V1715.04C2955.7 1715.04 2944.74 1657.51 3009.81 1645H3092" stroke="#D9D9D9" stroke-width="35"/>
<path d="M3365 492.5H3242V1232H3365V492.5Z" fill="#ADD9A8" stroke="#ADD9A8" stroke-width="7"/>
<path d="M3365.5 1658.5H3242.5V2398H3365.5V1658.5Z" fill="#ADD9A8" stroke="#ADD9A8" stroke-width="7"/>
<path d="M2954.51 402.5V804V1131C2954.51 1131 2954.51 1209.5 3008 1219.5H3091M3399 2015L3110.5 1805.5L3091 1769V1435.5M3399 884L3110.5 1068L3091 1107V1435.5M3091 1435.5H3120H3150H3179.12H3209" stroke="#D9D9D9" stroke-width="35"/>
<path d="M2185 1456L2213 1076V403M2213 1076H1053.5M2185 1456H1992.5M2185 1456V1834M2185 2551.5V1834M1053.5 1076V2551.5M1053.5 1076V729.5M1053.5 403V729.5M1053.5 729.5C1053.5 729.5 955.374 729.5 892.5 729.5C860.88 738.739 849.212 751.075 844 791.5V1205M2185 1834H2035L2007 1842L1918 1891.5" stroke="#D9D9D9" stroke-width="25"/>
<path d="M416 1436.5V495.5C432.674 463.499 444.07 447.089 474 425H846.5L893 450.5H1053L1083 425H2212V436H3366.5M416 1436.5V2385.5C428.756 2419.81 440.717 2431.44 465 2447.5H3406M416 1436.5H589.5" stroke="#D9D9D9" stroke-width="35"/>
<path d="M1023 1652H775.195H748.854V1898.72C748.854 1911.93 691.618 1910.89 663 1908.73V2221H932.268V2184.47H978.122H1023C1021.29 2164.76 1017.52 2156.66 1003 2150.44H876.659V2098.39H1003C1023 2107.4 1023 2065.86 1023 2065.86V1652Z" fill="#ADD9A8"/>
<path d="M904 2045.5V1918.5H980.5V2045.5H904Z" fill="#CECCD6" stroke="#988E8E" stroke-width="7"/>
<path d="M1251 1765H1323.5H1388.5V1750H1663V1782.5H1747V1741.5H1990V1756H1951V1848L1935.5 1855V1756H1883V1886.5V1923.5H1920.5L2077.5 1879.5H2149V2126H2077.5V1941.5H1484V1831H1233L1218 1820V1765H1251Z" fill="#ADD9A8"/>
<path d="M2062 2333V1974.5H1815.42V2333H2062Z" fill="#F2F1D9"/>
<path d="M1918 1769H1562V1837V1899.25H1877.43V1882L1918 1855.5V1769Z" fill="#F2F1D9"/>
<path d="M2062 2333V1974.5H1815.42V2333H2062Z" stroke="#CFCEBD" stroke-width="5"/>
<path d="M1918 1769H1562V1837V1899.25H1877.43V1882L1918 1855.5V1769Z" stroke="#CFCEBD" stroke-width="5"/>
<path d="M2167 2154H2071V2364H2167V2154Z" fill="#3C3936" stroke="#3C3936" stroke-width="7"/>
<path d="M1771.5 1971.5H1518V2138H1771.5V1971.5Z" fill="#E9E9E9" stroke="#CFCEBD" stroke-width="5"/>
<path d="M1004.5 1587H870.5H794.5L789.5 1244H961.5C977 1243.5 977 1220 977 1220V806.5L1023 837.5V1568.5C1023 1568.5 1016.66 1584.71 1004.5 1587Z" fill="#ADD9A8"/>
<path d="M1027.5 687C1010.82 703.27 1005.39 704.879 999.5 700.5L1003 603L999.5 504.5C999.5 504.5 1007 491 1027.5 543V687Z" fill="#ADD9A8"/>
<path d="M1081.5 749V504.5H1492V586.5H1119.5V749H1081.5Z" fill="#ADD9A8"/>
<path d="M1754 586.5V504.5H2159.5V586.5H1754Z" fill="#ADD9A8"/>
<path d="M2924 1762H2903V2172H2854.5V2373.5H2924V1762Z" fill="#ADD9A8"/>
<path d="M2812.5 1188H2924V511.5H2812.5V1188Z" fill="#ADD9A8"/>
<path d="M2924 1762H2903V2172H2854.5V2373.5H2924V1762Z" stroke="#141313"/>
<path d="M2812.5 1188H2924V511.5H2812.5V1188Z" stroke="#141313"/>
<path d="M2275 2361.5V2169.5H2615V1522H2559.5V1537.5H2349V1332H2559.5V1348H2615V1246.5H2627.5V685.5H2266V673H2106V776H2170V1047H1983.5V776H1832.5V818H1416V776H1264.5V1046.5H1077V776H1141V711L1089.5 674.5H979V701C959.333 700.667 919.1 700.2 915.5 701C911.9 701.8 914 683.667 915.5 674.5H664V938.5H771.5V1255.5H887.5V1613.5H772.5V1933H673V2197.5H931.5V2173.5H998.5V2374.5H493.5V1864H593V1012.5H489.5V498H987V600H1557V575.5H1585V508.5H1658.5V575.5H1687.5V600H2106V612.5H2266V490.5H2860V697.5H2843V1237.5H2931.5V1265H2985.5V1609H2931.5V1629.5H2843V2157.5H2864.5V2373.5H2723V2361.5H2275Z" fill="#CECCD6" stroke="#988E8E" stroke-width="7"/>
<path d="M2151.5 1489.5H2040.5V1581H2151.5V1489.5Z" fill="#ADD9A8"/>
<path d="M1142.5 1528.5H2046.5V1731.5H1206.5V1841.5H1478.5V2168.5H1737V2364H1129.5V2168.5H1157.5V1841.5H1174V1731.5H1142.5V1528.5Z" fill="#CECCD6" stroke="#988E8E" stroke-width="7"/>
<rect x="1137" y="1117" width="927" height="335" rx="140" stroke="#CECCD6" stroke-width="20"/>
<rect x="1160" y="1139" width="881" height="293" rx="120" fill="#D9D9D9"/>
<rect x="1160" y="1139" width="881" height="293" rx="120" stroke="#3C3936"/>
<path d="M1264 1409.62V1161C1264 1155.48 1268.48 1151 1274 1151H1937.44C1942.99 1151 1947.47 1155.48 1947.44 1161.02C1946.95 1250.45 1946.34 1412.95 1947.5 1419.5C1948.68 1426.2 1505.02 1422.44 1273.72 1419.62C1268.24 1419.55 1264 1415.1 1264 1409.62Z" fill="#F2F1D9"/>
<path d="M3207.5 367V2527" stroke="#D9D9D9" stroke-width="25"/>
<rect x="1331" y="880" width="580" height="167" rx="25" fill="#ADD9A8"/>
<path d="M1428 1024.5V906.5C1428 900.977 1432.48 896.5 1438 896.5H1814C1819.52 896.5 1824 900.977 1824 906.5V1024.5C1824 1030.02 1819.52 1034.5 1814 1034.5H1438C1432.48 1034.5 1428 1030.02 1428 1024.5Z" fill="#E9E9E9" stroke="#CFCEBD" stroke-width="5"/>
<path d="M1120 1119H1084V1616.5H1120V1517.5H1942V1470H1251.5C1212 1460.5 1184.22 1448.5 1156 1414.5C1139.2 1394.26 1126.32 1369.07 1120 1335C1120 1335 1118.33 1230.35 1120 1119Z" fill="#ADD9A8"/>
<path d="M2150 1175.5C2150 1175.5 2124.94 1116.3 2080 1116C2065.32 1127.31 2065.63 1145.51 2074.5 1189.5C2080.33 1209.02 2088.04 1226.65 2090.5 1242V1337C2090.5 1337 2072 1395.5 2041.5 1425H2150V1175.5Z" fill="#ADD9A8"/>
<path d="M2599 738H2354.5V828.5H2236.5V1226.5L2219 1439.5H2335V1307.5H2599V738Z" fill="#ADD9A8"/>
<path d="M2599 2091.5V1605.5H2364.5L2335 1585H2219V2109C2219 2109 2230.16 2128 2246.5 2133H2498.5C2498.5 2133 2565.78 2115.77 2599 2091.5Z" fill="#ADD9A8"/>
<path d="M2212 2193H2261V2389H2212V2193Z" fill="#ADD9A8" stroke="#141313"/>
<path d="M3005.5 491H3166V939.5L3058 1013V1137H3005.5V491Z" fill="#ADD9A8"/>
<path d="M3005.5 2389.5V1712H3058V1823L3166 1904V2389.5H3005.5Z" fill="#ADD9A8"/>
<path d="M3178 1494H3155V1775H3178V1494Z" fill="#ADD9A8"/>
<path d="M3178 1095H3155V1376H3178V1095Z" fill="#ADD9A8"/>
<path d="M2787.52 1405.18V1475H2776.95V1415.75H2776.54L2759.84 1426.66V1416.57L2777.26 1405.18H2787.52Z" fill="#141313"/>
<path d="M1598.28 728V720.364L1621.9 695.886C1624.43 693.227 1626.51 690.898 1628.14 688.898C1629.8 686.875 1631.04 684.955 1631.86 683.136C1632.68 681.318 1633.09 679.386 1633.09 677.341C1633.09 675.023 1632.54 673.023 1631.45 671.341C1630.36 669.636 1628.87 668.33 1626.98 667.42C1625.1 666.489 1622.97 666.023 1620.61 666.023C1618.11 666.023 1615.93 666.534 1614.06 667.557C1612.2 668.58 1610.77 670.023 1609.77 671.886C1608.77 673.75 1608.27 675.932 1608.27 678.432H1598.21C1598.21 674.182 1599.19 670.466 1601.14 667.284C1603.1 664.102 1605.78 661.636 1609.19 659.886C1612.6 658.114 1616.47 657.227 1620.81 657.227C1625.2 657.227 1629.06 658.102 1632.4 659.852C1635.77 661.58 1638.39 663.943 1640.28 666.943C1642.16 669.92 1643.11 673.284 1643.11 677.034C1643.11 679.625 1642.62 682.159 1641.64 684.636C1640.69 687.114 1639.02 689.875 1636.63 692.92C1634.24 695.943 1630.93 699.614 1626.68 703.932L1612.8 718.455V718.966H1644.23V728H1598.28Z" fill="#141313"/>
<path d="M2077.09 954.955C2072.4 954.955 2068.22 954.148 2064.54 952.534C2060.88 950.92 2057.98 948.682 2055.85 945.818C2053.73 942.932 2052.6 939.591 2052.44 935.795H2063.14C2063.28 937.864 2063.97 939.659 2065.22 941.182C2066.49 942.682 2068.15 943.841 2070.2 944.659C2072.24 945.477 2074.52 945.886 2077.02 945.886C2079.77 945.886 2082.2 945.409 2084.31 944.455C2086.45 943.5 2088.12 942.17 2089.32 940.466C2090.53 938.739 2091.13 936.75 2091.13 934.5C2091.13 932.159 2090.53 930.102 2089.32 928.33C2088.14 926.534 2086.4 925.125 2084.11 924.102C2081.84 923.08 2079.09 922.568 2075.86 922.568H2069.96V913.977H2075.86C2078.45 913.977 2080.72 913.511 2082.68 912.58C2084.65 911.648 2086.2 910.352 2087.31 908.693C2088.43 907.011 2088.98 905.045 2088.98 902.795C2088.98 900.636 2088.49 898.761 2087.52 897.17C2086.56 895.557 2085.2 894.295 2083.43 893.386C2081.68 892.477 2079.61 892.023 2077.22 892.023C2074.95 892.023 2072.82 892.443 2070.85 893.284C2068.89 894.102 2067.3 895.284 2066.07 896.83C2064.85 898.352 2064.19 900.182 2064.1 902.318H2053.9C2054.02 898.545 2055.13 895.227 2057.24 892.364C2059.38 889.5 2062.2 887.261 2065.7 885.648C2069.2 884.034 2073.09 883.227 2077.36 883.227C2081.84 883.227 2085.7 884.102 2088.95 885.852C2092.22 887.58 2094.74 889.886 2096.52 892.773C2098.31 895.659 2099.2 898.818 2099.18 902.25C2099.2 906.159 2098.11 909.477 2095.9 912.205C2093.72 914.932 2090.81 916.761 2087.18 917.693V918.239C2091.81 918.943 2095.4 920.784 2097.95 923.761C2100.52 926.739 2101.79 930.432 2101.77 934.841C2101.79 938.682 2100.72 942.125 2098.56 945.17C2096.43 948.216 2093.51 950.614 2089.8 952.364C2086.1 954.091 2081.86 954.955 2077.09 954.955Z" fill="#141313"/>
<path d="M1143.84 940.364V931.841L1174.01 884.182H1180.73V896.727H1176.47L1154.89 930.886V931.432H1196.24V940.364H1143.84ZM1176.95 954V937.773L1177.01 933.886V884.182H1187V954H1176.95Z" fill="#141313"/>
<path d="M744.996 1475.95C740.723 1475.95 736.882 1475.14 733.473 1473.5C730.087 1471.84 727.382 1469.57 725.359 1466.68C723.337 1463.8 722.257 1460.5 722.121 1456.8H732.348C732.598 1459.8 733.928 1462.26 736.337 1464.19C738.746 1466.12 741.632 1467.09 744.996 1467.09C747.678 1467.09 750.053 1466.48 752.121 1465.25C754.212 1464 755.848 1462.28 757.03 1460.1C758.234 1457.92 758.837 1455.43 758.837 1452.64C758.837 1449.8 758.223 1447.26 756.996 1445.03C755.768 1442.81 754.075 1441.06 751.916 1439.78C749.78 1438.51 747.325 1437.86 744.553 1437.84C742.439 1437.84 740.314 1438.2 738.178 1438.93C736.041 1439.66 734.314 1440.61 732.996 1441.8L723.348 1440.36L727.268 1405.18H765.655V1414.22H736.03L733.814 1433.75H734.223C735.587 1432.43 737.393 1431.33 739.643 1430.44C741.916 1429.56 744.348 1429.11 746.939 1429.11C751.189 1429.11 754.973 1430.12 758.291 1432.15C761.632 1434.17 764.257 1436.93 766.166 1440.43C768.098 1443.91 769.053 1447.91 769.03 1452.43C769.053 1456.95 768.03 1460.99 765.962 1464.53C763.916 1468.08 761.075 1470.87 757.439 1472.92C753.825 1474.94 749.678 1475.95 744.996 1475.95Z" fill="#141313"/>
<path d="M1316.58 2161.95C1313.46 2161.91 1310.39 2161.34 1307.37 2160.25C1304.37 2159.16 1301.64 2157.34 1299.19 2154.8C1296.73 2152.25 1294.77 2148.83 1293.29 2144.53C1291.84 2140.24 1291.11 2134.87 1291.11 2128.44C1291.11 2122.35 1291.71 2116.94 1292.92 2112.22C1294.14 2107.49 1295.9 2103.5 1298.2 2100.25C1300.5 2096.98 1303.27 2094.49 1306.52 2092.78C1309.77 2091.08 1313.42 2090.23 1317.46 2090.23C1321.62 2090.23 1325.31 2091.05 1328.54 2092.68C1331.77 2094.32 1334.38 2096.58 1336.38 2099.47C1338.4 2102.35 1339.69 2105.64 1340.23 2109.32H1329.84C1329.13 2106.41 1327.73 2104.03 1325.64 2102.19C1323.55 2100.35 1320.83 2099.43 1317.46 2099.43C1312.35 2099.43 1308.36 2101.66 1305.5 2106.11C1302.65 2110.57 1301.22 2116.76 1301.2 2124.69H1301.71C1302.92 2122.72 1304.39 2121.03 1306.14 2119.65C1307.92 2118.24 1309.89 2117.16 1312.08 2116.41C1314.28 2115.64 1316.6 2115.25 1319.03 2115.25C1323.08 2115.25 1326.73 2116.24 1330.01 2118.22C1333.3 2120.17 1335.93 2122.87 1337.88 2126.33C1339.84 2129.78 1340.81 2133.74 1340.81 2138.19C1340.81 2142.65 1339.8 2146.68 1337.78 2150.3C1335.78 2153.91 1332.96 2156.77 1329.33 2158.89C1325.69 2160.98 1321.44 2162 1316.58 2161.95ZM1316.54 2153.09C1319.22 2153.09 1321.62 2152.43 1323.73 2151.11C1325.85 2149.8 1327.52 2148.02 1328.75 2145.8C1329.97 2143.57 1330.59 2141.08 1330.59 2138.33C1330.59 2135.65 1329.98 2133.2 1328.78 2131C1327.6 2128.8 1325.96 2127.05 1323.87 2125.75C1321.8 2124.45 1319.44 2123.81 1316.78 2123.81C1314.76 2123.81 1312.88 2124.19 1311.15 2124.97C1309.45 2125.74 1307.95 2126.81 1306.65 2128.17C1305.36 2129.53 1304.34 2131.1 1303.59 2132.88C1302.86 2134.62 1302.5 2136.48 1302.5 2138.43C1302.5 2141.05 1303.1 2143.47 1304.3 2145.69C1305.53 2147.92 1307.2 2149.72 1309.31 2151.08C1311.45 2152.42 1313.86 2153.09 1316.54 2153.09Z" fill="#141313"/>
<path d="M1569.27 1666L1599.75 1605.73V1605.22H1564.5V1596.18H1610.66V1605.52L1580.28 1666H1569.27Z" fill="#141313"/>
<path d="M1941.98 2189.95C1937.09 2189.95 1932.77 2189.11 1929.02 2187.43C1925.3 2185.75 1922.38 2183.43 1920.26 2180.48C1918.15 2177.52 1917.1 2174.16 1917.13 2170.39C1917.1 2167.43 1917.71 2164.72 1918.93 2162.24C1920.18 2159.74 1921.88 2157.66 1924.01 2156C1926.15 2154.32 1928.54 2153.25 1931.17 2152.8V2152.39C1927.69 2151.55 1924.91 2149.68 1922.82 2146.8C1920.73 2143.91 1919.69 2140.59 1919.72 2136.84C1919.69 2133.27 1920.64 2130.09 1922.55 2127.3C1924.48 2124.48 1927.13 2122.26 1930.49 2120.65C1933.85 2119.03 1937.68 2118.23 1941.98 2118.23C1946.23 2118.23 1950.02 2119.05 1953.37 2120.68C1956.73 2122.3 1959.38 2124.51 1961.31 2127.33C1963.24 2130.12 1964.22 2133.3 1964.24 2136.84C1964.22 2140.59 1963.15 2143.91 1961.04 2146.8C1958.92 2149.68 1956.17 2151.55 1952.79 2152.39V2152.8C1955.4 2153.25 1957.75 2154.32 1959.84 2156C1961.96 2157.66 1963.64 2159.74 1964.89 2162.24C1966.16 2164.72 1966.81 2167.43 1966.83 2170.39C1966.81 2174.16 1965.74 2177.52 1963.63 2180.48C1961.51 2183.43 1958.58 2185.75 1954.83 2187.43C1951.1 2189.11 1946.82 2189.95 1941.98 2189.95ZM1941.98 2181.33C1944.87 2181.33 1947.37 2180.85 1949.48 2179.9C1951.59 2178.92 1953.23 2177.57 1954.39 2175.84C1955.55 2174.09 1956.14 2172.05 1956.16 2169.7C1956.14 2167.27 1955.5 2165.12 1954.25 2163.26C1953.02 2161.4 1951.35 2159.93 1949.24 2158.86C1947.13 2157.8 1944.71 2157.26 1941.98 2157.26C1939.23 2157.26 1936.79 2157.8 1934.65 2158.86C1932.51 2159.93 1930.83 2161.4 1929.6 2163.26C1928.38 2165.12 1927.77 2167.27 1927.8 2169.7C1927.77 2172.05 1928.33 2174.09 1929.47 2175.84C1930.63 2177.57 1932.27 2178.92 1934.41 2179.9C1936.55 2180.85 1939.07 2181.33 1941.98 2181.33ZM1941.98 2148.84C1944.3 2148.84 1946.35 2148.37 1948.15 2147.44C1949.94 2146.51 1951.35 2145.22 1952.38 2143.56C1953.42 2141.9 1953.96 2139.95 1953.98 2137.73C1953.96 2135.55 1953.43 2133.64 1952.41 2132C1951.41 2130.36 1950.01 2129.1 1948.22 2128.22C1946.42 2127.31 1944.34 2126.85 1941.98 2126.85C1939.57 2126.85 1937.46 2127.31 1935.64 2128.22C1933.84 2129.1 1932.44 2130.36 1931.44 2132C1930.44 2133.64 1929.96 2135.55 1929.98 2137.73C1929.96 2139.95 1930.46 2141.9 1931.48 2143.56C1932.5 2145.22 1933.91 2146.51 1935.71 2147.44C1937.52 2148.37 1939.62 2148.84 1941.98 2148.84Z" fill="#141313"/>
<rect x="2076.5" y="2216.5" width="85" height="85" stroke="white" stroke-width="5"/>
<path d="M2095.97 2294V2224.18H2120.85C2126.29 2224.18 2130.79 2225.17 2134.35 2227.15C2137.92 2229.12 2140.59 2231.83 2142.37 2235.26C2144.14 2238.67 2145.02 2242.51 2145.02 2246.78C2145.02 2251.08 2144.13 2254.94 2142.33 2258.38C2140.56 2261.78 2137.88 2264.49 2134.29 2266.49C2130.72 2268.47 2126.23 2269.45 2120.82 2269.45H2103.71V2260.52H2119.87C2123.3 2260.52 2126.08 2259.93 2128.22 2258.75C2130.35 2257.55 2131.92 2255.91 2132.92 2253.84C2133.92 2251.77 2134.42 2249.42 2134.42 2246.78C2134.42 2244.15 2133.92 2241.81 2132.92 2239.76C2131.92 2237.72 2130.34 2236.11 2128.18 2234.95C2126.05 2233.8 2123.23 2233.22 2119.73 2233.22H2106.5V2294H2095.97Z" fill="white"/>
<path d="M1600.42 1249.23C1603.53 1249.25 1606.6 1249.82 1609.62 1250.93C1612.64 1252.05 1615.37 1253.86 1617.8 1256.39C1620.26 1258.91 1622.21 1262.32 1623.67 1266.61C1625.14 1270.89 1625.89 1276.2 1625.92 1282.57C1625.92 1288.68 1625.3 1294.12 1624.08 1298.9C1622.85 1303.65 1621.09 1307.66 1618.79 1310.93C1616.52 1314.2 1613.76 1316.69 1610.51 1318.4C1607.26 1320.1 1603.6 1320.95 1599.53 1320.95C1595.37 1320.95 1591.68 1320.14 1588.45 1318.5C1585.22 1316.86 1582.6 1314.6 1580.58 1311.72C1578.55 1308.81 1577.29 1305.47 1576.79 1301.69H1587.19C1587.87 1304.69 1589.26 1307.12 1591.35 1308.99C1593.46 1310.83 1596.19 1311.75 1599.53 1311.75C1604.64 1311.75 1608.63 1309.52 1611.5 1305.07C1614.36 1300.59 1615.8 1294.34 1615.83 1286.32H1615.28C1614.1 1288.27 1612.62 1289.95 1610.85 1291.36C1609.1 1292.77 1607.13 1293.86 1604.95 1294.64C1602.77 1295.41 1600.44 1295.8 1597.96 1295.8C1593.94 1295.8 1590.28 1294.81 1586.98 1292.83C1583.69 1290.85 1581.06 1288.14 1579.11 1284.68C1577.15 1281.23 1576.18 1277.28 1576.18 1272.85C1576.18 1268.44 1577.18 1264.44 1579.18 1260.85C1581.2 1257.26 1584.02 1254.42 1587.63 1252.33C1591.27 1250.22 1595.53 1249.18 1600.42 1249.23ZM1600.45 1258.09C1597.79 1258.09 1595.39 1258.75 1593.26 1260.07C1591.14 1261.36 1589.47 1263.12 1588.25 1265.35C1587.02 1267.56 1586.4 1270.01 1586.4 1272.72C1586.4 1275.42 1587 1277.87 1588.18 1280.08C1589.38 1282.26 1591.02 1284 1593.09 1285.3C1595.18 1286.57 1597.56 1287.2 1600.25 1287.2C1602.25 1287.2 1604.11 1286.82 1605.84 1286.05C1607.56 1285.27 1609.08 1284.2 1610.37 1282.84C1611.67 1281.45 1612.68 1279.89 1613.4 1278.14C1614.13 1276.39 1614.5 1274.55 1614.5 1272.61C1614.5 1270.05 1613.88 1267.66 1612.65 1265.45C1611.45 1263.25 1609.79 1261.48 1607.68 1260.14C1605.56 1258.77 1603.15 1258.09 1600.45 1258.09Z" fill="#141313"/>
<rect x="3266" y="1365" width="120" height="185" fill="#D1D5F4"/>
<path d="M275.5 2543.5H3501.5" stroke="#BEC8D3" stroke-width="57"/>
<path d="M3468 269L3465 1516.75L3462 2572.5" stroke="#BEC8D3" stroke-width="153"/>
<rect x="3276" y="1408" width="100" height="100" rx="15" fill="#2F00FF"/>
<path d="M3309.33 1433V1458" stroke="#E9E9E9" stroke-width="6" stroke-linecap="round" stroke-linejoin="round"/>
<path d="M3338.5 1433V1458" stroke="#E9E9E9" stroke-width="6" stroke-linecap="round" stroke-linejoin="round"/>
<path d="M3284.33 1458H3366" stroke="#E9E9E9" stroke-width="6" stroke-linecap="round" stroke-linejoin="round"/>
<path d="M3351 1483H3363.5C3363.5 1483 3365.58 1475.92 3366.83 1471.33C3367.25 1469.67 3367.67 1468 3367.67 1466.33C3367.67 1464.67 3367.25 1463 3366.83 1461.33L3361 1440.5C3359.75 1436.33 3355.58 1433 3351 1433H3292.67C3290.46 1433 3288.34 1433.88 3286.77 1435.44C3285.21 1437 3284.33 1439.12 3284.33 1441.33V1483H3296.83" stroke="#E9E9E9" stroke-width="6" stroke-linecap="round" stroke-linejoin="round"/>
<path d="M3305.17 1491.33C3309.77 1491.33 3313.5 1487.6 3313.5 1483C3313.5 1478.4 3309.77 1474.67 3305.17 1474.67C3300.56 1474.67 3296.83 1478.4 3296.83 1483C3296.83 1487.6 3300.56 1491.33 3305.17 1491.33Z" stroke="#E9E9E9" stroke-width="6" stroke-linecap="round" stroke-linejoin="round"/>
<path d="M3313.5 1483H3334.33" stroke="#E9E9E9" stroke-width="6" stroke-linecap="round" stroke-linejoin="round"/>
<path d="M3342.67 1491.33C3347.27 1491.33 3351 1487.6 3351 1483C3351 1478.4 3347.27 1474.67 3342.67 1474.67C3338.06 1474.67 3334.33 1478.4 3334.33 1483C3334.33 1487.6 3338.06 1491.33 3342.67 1491.33Z" stroke="#E9E9E9" stroke-width="6" stroke-linecap="round" stroke-linejoin="round"/>
<path d="M3532.5 322.5C3509.69 322.5 1398.31 321 277 321" stroke="#BEC8D3" stroke-width="106"/>
<path d="M304 268V2571" stroke="#BEC8D3" stroke-width="57"/>
<path d="M1561.36 2577.09C1560.45 2577.09 1559.64 2577.02 1558.93 2576.86C1558.22 2576.73 1557.73 2576.59 1557.45 2576.45L1558.82 2571.73C1560.12 2572.06 1561.27 2572.18 1562.27 2572.09C1563.27 2572 1564.16 2571.55 1564.93 2570.75C1565.72 2569.96 1566.44 2568.68 1567.09 2566.91L1568.09 2564.18L1555.18 2529.09H1561L1570.64 2556.91H1571L1580.64 2529.09H1586.45L1571.64 2569.09C1570.97 2570.89 1570.14 2572.39 1569.16 2573.57C1568.17 2574.77 1567.03 2575.65 1565.73 2576.23C1564.44 2576.8 1562.98 2577.09 1561.36 2577.09ZM1587.51 2564V2559H1588.78C1589.82 2559 1590.7 2558.8 1591.39 2558.39C1592.09 2557.96 1592.65 2557.23 1593.07 2556.18C1593.51 2555.12 1593.85 2553.65 1594.07 2551.77C1594.32 2549.88 1594.49 2547.47 1594.6 2544.55L1595.23 2529.09H1618.51V2564H1613.14V2534.09H1600.32L1599.78 2546.55C1599.66 2549.41 1599.4 2551.93 1599.01 2554.11C1598.63 2556.28 1598.04 2558.1 1597.26 2559.57C1596.48 2561.04 1595.45 2562.14 1594.16 2562.89C1592.88 2563.63 1591.26 2564 1589.32 2564H1587.51ZM1632.26 2564.36C1631.13 2564.36 1630.17 2563.96 1629.37 2563.16C1628.57 2562.36 1628.16 2561.39 1628.16 2560.27C1628.16 2559.15 1628.57 2558.19 1629.37 2557.39C1630.17 2556.58 1631.13 2556.18 1632.26 2556.18C1633.38 2556.18 1634.34 2556.58 1635.14 2557.39C1635.95 2558.19 1636.35 2559.15 1636.35 2560.27C1636.35 2561.02 1636.16 2561.7 1635.78 2562.32C1635.41 2562.94 1634.92 2563.44 1634.3 2563.82C1633.7 2564.18 1633.01 2564.36 1632.26 2564.36ZM1692.79 2517.45V2522.45H1670.34V2564H1664.7V2517.45H1692.79ZM1710.36 2564.73C1706.99 2564.73 1704.09 2563.98 1701.65 2562.5C1699.23 2561 1697.36 2558.91 1696.04 2556.23C1694.74 2553.53 1694.09 2550.39 1694.09 2546.82C1694.09 2543.24 1694.74 2540.09 1696.04 2537.36C1697.36 2534.62 1699.19 2532.48 1701.54 2530.95C1703.9 2529.41 1706.66 2528.64 1709.81 2528.64C1711.63 2528.64 1713.43 2528.94 1715.2 2529.55C1716.97 2530.15 1718.59 2531.14 1720.04 2532.5C1721.49 2533.85 1722.65 2535.64 1723.52 2537.86C1724.38 2540.09 1724.81 2542.83 1724.81 2546.09V2548.36H1697.9V2543.73H1719.36C1719.36 2541.76 1718.96 2540 1718.18 2538.45C1717.4 2536.91 1716.3 2535.69 1714.86 2534.8C1713.43 2533.9 1711.75 2533.45 1709.81 2533.45C1707.68 2533.45 1705.83 2533.98 1704.27 2535.05C1702.72 2536.09 1701.53 2537.45 1700.7 2539.14C1699.87 2540.82 1699.45 2542.62 1699.45 2544.55V2547.64C1699.45 2550.27 1699.9 2552.51 1700.81 2554.34C1701.74 2556.16 1703.02 2557.55 1704.65 2558.5C1706.29 2559.44 1708.19 2559.91 1710.36 2559.91C1711.77 2559.91 1713.04 2559.71 1714.18 2559.32C1715.33 2558.91 1716.32 2558.3 1717.15 2557.5C1717.99 2556.68 1718.63 2555.67 1719.09 2554.45L1724.27 2555.91C1723.72 2557.67 1722.8 2559.21 1721.52 2560.55C1720.23 2561.86 1718.64 2562.89 1716.74 2563.64C1714.85 2564.36 1712.72 2564.73 1710.36 2564.73ZM1732.97 2577.09V2529.09H1738.15V2534.64H1738.79C1739.18 2534.03 1739.73 2533.26 1740.43 2532.32C1741.14 2531.36 1742.15 2530.52 1743.47 2529.77C1744.8 2529.02 1746.61 2528.64 1748.88 2528.64C1751.82 2528.64 1754.41 2529.37 1756.65 2530.84C1758.9 2532.31 1760.65 2534.39 1761.9 2537.09C1763.16 2539.79 1763.79 2542.97 1763.79 2546.64C1763.79 2550.33 1763.16 2553.54 1761.9 2556.25C1760.65 2558.95 1758.9 2561.04 1756.68 2562.52C1754.45 2563.99 1751.88 2564.73 1748.97 2564.73C1746.73 2564.73 1744.93 2564.36 1743.59 2563.61C1742.24 2562.86 1741.2 2562 1740.47 2561.05C1739.74 2560.08 1739.18 2559.27 1738.79 2558.64H1738.34V2577.09H1732.97ZM1738.24 2546.55C1738.24 2549.18 1738.63 2551.51 1739.4 2553.52C1740.18 2555.52 1741.3 2557.09 1742.79 2558.23C1744.27 2559.35 1746.09 2559.91 1748.24 2559.91C1750.49 2559.91 1752.36 2559.32 1753.86 2558.14C1755.37 2556.94 1756.51 2555.33 1757.27 2553.32C1758.04 2551.29 1758.43 2549.03 1758.43 2546.55C1758.43 2544.09 1758.05 2541.88 1757.29 2539.91C1756.55 2537.92 1755.42 2536.36 1753.9 2535.2C1752.4 2534.04 1750.52 2533.45 1748.24 2533.45C1746.06 2533.45 1744.23 2534.01 1742.74 2535.11C1741.26 2536.2 1740.14 2537.73 1739.38 2539.7C1738.62 2541.66 1738.24 2543.94 1738.24 2546.55ZM1782.24 2564.82C1780.03 2564.82 1778.02 2564.4 1776.22 2563.57C1774.42 2562.72 1772.99 2561.5 1771.93 2559.91C1770.87 2558.3 1770.34 2556.36 1770.34 2554.09C1770.34 2552.09 1770.73 2550.47 1771.52 2549.23C1772.3 2547.97 1773.36 2546.98 1774.68 2546.27C1775.99 2545.56 1777.45 2545.03 1779.04 2544.68C1780.65 2544.32 1782.26 2544.03 1783.88 2543.82C1786 2543.55 1787.72 2543.34 1789.04 2543.2C1790.37 2543.05 1791.34 2542.8 1791.95 2542.45C1792.57 2542.11 1792.88 2541.5 1792.88 2540.64V2540.45C1792.88 2538.21 1792.27 2536.47 1791.04 2535.23C1789.83 2533.98 1787.99 2533.36 1785.52 2533.36C1782.96 2533.36 1780.95 2533.92 1779.49 2535.05C1778.04 2536.17 1777.02 2537.36 1776.43 2538.64L1771.34 2536.82C1772.24 2534.7 1773.46 2533.05 1774.97 2531.86C1776.5 2530.67 1778.17 2529.83 1779.97 2529.36C1781.79 2528.88 1783.58 2528.64 1785.34 2528.64C1786.46 2528.64 1787.74 2528.77 1789.2 2529.05C1790.67 2529.3 1792.09 2529.84 1793.45 2530.66C1794.83 2531.48 1795.97 2532.71 1796.88 2534.36C1797.79 2536.02 1798.24 2538.23 1798.24 2541V2564H1792.88V2559.27H1792.61C1792.24 2560.03 1791.64 2560.84 1790.79 2561.7C1789.94 2562.57 1788.81 2563.3 1787.4 2563.91C1785.99 2564.52 1784.27 2564.82 1782.24 2564.82ZM1783.06 2560C1785.18 2560 1786.97 2559.58 1788.43 2558.75C1789.9 2557.92 1791 2556.84 1791.74 2555.52C1792.5 2554.2 1792.88 2552.82 1792.88 2551.36V2546.45C1792.65 2546.73 1792.15 2546.98 1791.38 2547.2C1790.62 2547.42 1789.74 2547.61 1788.74 2547.77C1787.76 2547.92 1786.8 2548.06 1785.86 2548.18C1784.93 2548.29 1784.18 2548.38 1783.61 2548.45C1782.21 2548.64 1780.91 2548.93 1779.7 2549.34C1778.5 2549.73 1777.53 2550.33 1776.79 2551.14C1776.06 2551.92 1775.7 2553 1775.7 2554.36C1775.7 2556.23 1776.39 2557.64 1777.77 2558.59C1779.16 2559.53 1780.93 2560 1783.06 2560ZM1822.22 2564.73C1818.94 2564.73 1816.13 2563.95 1813.76 2562.41C1811.4 2560.86 1809.58 2558.73 1808.31 2556.02C1807.03 2553.31 1806.4 2550.21 1806.4 2546.73C1806.4 2543.18 1807.05 2540.05 1808.35 2537.34C1809.67 2534.61 1811.5 2532.48 1813.85 2530.95C1816.22 2529.41 1818.97 2528.64 1822.12 2528.64C1824.58 2528.64 1826.79 2529.09 1828.76 2530C1830.73 2530.91 1832.34 2532.18 1833.6 2533.82C1834.86 2535.45 1835.64 2537.36 1835.94 2539.55H1830.58C1830.17 2537.95 1829.26 2536.55 1827.85 2535.32C1826.46 2534.08 1824.58 2533.45 1822.22 2533.45C1820.13 2533.45 1818.29 2534 1816.72 2535.09C1815.16 2536.17 1813.94 2537.69 1813.06 2539.66C1812.19 2541.61 1811.76 2543.91 1811.76 2546.55C1811.76 2549.24 1812.19 2551.59 1813.03 2553.59C1813.9 2555.59 1815.11 2557.14 1816.67 2558.25C1818.25 2559.36 1820.09 2559.91 1822.22 2559.91C1823.61 2559.91 1824.88 2559.67 1826.01 2559.18C1827.15 2558.7 1828.11 2558 1828.9 2557.09C1829.69 2556.18 1830.25 2555.09 1830.58 2553.82H1835.94C1835.64 2555.88 1834.89 2557.73 1833.69 2559.39C1832.51 2561.02 1830.94 2562.33 1828.99 2563.3C1827.05 2564.25 1824.79 2564.73 1822.22 2564.73ZM1849.15 2556.09L1865.97 2529.09H1872.15V2564H1866.78V2537L1850.06 2564H1843.78V2529.09H1849.15V2556.09ZM1901.06 2556.73L1913.24 2529.09H1918.34L1903.24 2564H1898.88L1884.06 2529.09H1889.06L1901.06 2556.73ZM1887.34 2529.09V2564H1881.97V2529.09H1887.34ZM1914.79 2564V2529.09H1920.15V2564H1914.79ZM1944.15 2564.73C1941 2564.73 1938.24 2563.98 1935.86 2562.48C1933.49 2560.98 1931.65 2558.88 1930.31 2556.18C1928.99 2553.48 1928.34 2550.33 1928.34 2546.73C1928.34 2543.09 1928.99 2539.92 1930.31 2537.2C1931.65 2534.49 1933.49 2532.39 1935.86 2530.89C1938.24 2529.39 1941 2528.64 1944.15 2528.64C1947.3 2528.64 1950.06 2529.39 1952.43 2530.89C1954.8 2532.39 1956.65 2534.49 1957.97 2537.2C1959.3 2539.92 1959.97 2543.09 1959.97 2546.73C1959.97 2550.33 1959.3 2553.48 1957.97 2556.18C1956.65 2558.88 1954.8 2560.98 1952.43 2562.48C1950.06 2563.98 1947.3 2564.73 1944.15 2564.73ZM1944.15 2559.91C1946.55 2559.91 1948.52 2559.3 1950.06 2558.07C1951.61 2556.84 1952.75 2555.23 1953.49 2553.23C1954.24 2551.23 1954.61 2549.06 1954.61 2546.73C1954.61 2544.39 1954.24 2542.22 1953.49 2540.2C1952.75 2538.19 1951.61 2536.56 1950.06 2535.32C1948.52 2534.08 1946.55 2533.45 1944.15 2533.45C1941.76 2533.45 1939.79 2534.08 1938.24 2535.32C1936.7 2536.56 1935.55 2538.19 1934.81 2540.2C1934.07 2542.22 1933.7 2544.39 1933.7 2546.73C1933.7 2549.06 1934.07 2551.23 1934.81 2553.23C1935.55 2555.23 1936.7 2556.84 1938.24 2558.07C1939.79 2559.3 1941.76 2559.91 1944.15 2559.91ZM1968.16 2564V2529.09H1982.43C1986.19 2529.09 1989.17 2529.94 1991.39 2531.64C1993.6 2533.33 1994.7 2535.58 1994.7 2538.36C1994.7 2540.48 1994.08 2542.13 1992.82 2543.3C1991.56 2544.45 1989.95 2545.23 1987.98 2545.64C1989.27 2545.82 1990.52 2546.27 1991.73 2547C1992.95 2547.73 1993.97 2548.73 1994.77 2550C1995.58 2551.26 1995.98 2552.8 1995.98 2554.64C1995.98 2556.42 1995.52 2558.02 1994.61 2559.43C1993.7 2560.84 1992.4 2561.95 1990.7 2562.77C1989.01 2563.59 1986.98 2564 1984.61 2564H1968.16ZM1973.25 2559.09H1984.61C1986.46 2559.09 1987.91 2558.65 1988.95 2557.77C1990 2556.89 1990.52 2555.7 1990.52 2554.18C1990.52 2552.38 1990 2550.96 1988.95 2549.93C1987.91 2548.89 1986.46 2548.36 1984.61 2548.36H1973.25V2559.09ZM1973.25 2543.73H1982.43C1983.87 2543.73 1985.11 2543.53 1986.14 2543.14C1987.17 2542.73 1987.95 2542.15 1988.5 2541.41C1989.06 2540.65 1989.34 2539.76 1989.34 2538.73C1989.34 2537.26 1988.73 2536.11 1987.5 2535.27C1986.27 2534.42 1984.58 2534 1982.43 2534H1973.25V2543.73ZM2014.37 2564.82C2012.16 2564.82 2010.15 2564.4 2008.35 2563.57C2006.54 2562.72 2005.11 2561.5 2004.05 2559.91C2002.99 2558.3 2002.46 2556.36 2002.46 2554.09C2002.46 2552.09 2002.85 2550.47 2003.64 2549.23C2004.43 2547.97 2005.48 2546.98 2006.8 2546.27C2008.12 2545.56 2009.57 2545.03 2011.16 2544.68C2012.77 2544.32 2014.38 2544.03 2016.01 2543.82C2018.13 2543.55 2019.85 2543.34 2021.16 2543.2C2022.5 2543.05 2023.47 2542.8 2024.07 2542.45C2024.7 2542.11 2025.01 2541.5 2025.01 2540.64V2540.45C2025.01 2538.21 2024.39 2536.47 2023.16 2535.23C2021.95 2533.98 2020.11 2533.36 2017.64 2533.36C2015.08 2533.36 2013.07 2533.92 2011.62 2535.05C2010.16 2536.17 2009.14 2537.36 2008.55 2538.64L2003.46 2536.82C2004.37 2534.7 2005.58 2533.05 2007.1 2531.86C2008.63 2530.67 2010.29 2529.83 2012.1 2529.36C2013.91 2528.88 2015.7 2528.64 2017.46 2528.64C2018.58 2528.64 2019.87 2528.77 2021.32 2529.05C2022.79 2529.3 2024.21 2529.84 2025.57 2530.66C2026.95 2531.48 2028.1 2532.71 2029.01 2534.36C2029.91 2536.02 2030.37 2538.23 2030.37 2541V2564H2025.01V2559.27H2024.73C2024.37 2560.03 2023.76 2560.84 2022.91 2561.7C2022.07 2562.57 2020.94 2563.3 2019.53 2563.91C2018.12 2564.52 2016.4 2564.82 2014.37 2564.82ZM2015.19 2560C2017.31 2560 2019.1 2559.58 2020.55 2558.75C2022.02 2557.92 2023.13 2556.84 2023.87 2555.52C2024.63 2554.2 2025.01 2552.82 2025.01 2551.36V2546.45C2024.78 2546.73 2024.28 2546.98 2023.51 2547.2C2022.75 2547.42 2021.87 2547.61 2020.87 2547.77C2019.88 2547.92 2018.92 2548.06 2017.98 2548.18C2017.06 2548.29 2016.31 2548.38 2015.73 2548.45C2014.34 2548.64 2013.04 2548.93 2011.82 2549.34C2010.63 2549.73 2009.66 2550.33 2008.91 2551.14C2008.19 2551.92 2007.82 2553 2007.82 2554.36C2007.82 2556.23 2008.51 2557.64 2009.89 2558.59C2011.29 2559.53 2013.05 2560 2015.19 2560Z" fill="#141313"/>
<path d="M1561.36 354.091C1560.45 354.091 1559.64 354.015 1558.93 353.864C1558.22 353.727 1557.73 353.591 1557.45 353.455L1558.82 348.727C1560.12 349.061 1561.27 349.182 1562.27 349.091C1563.27 349 1564.16 348.553 1564.93 347.75C1565.72 346.962 1566.44 345.682 1567.09 343.909L1568.09 341.182L1555.18 306.091H1561L1570.64 333.909H1571L1580.64 306.091H1586.45L1571.64 346.091C1570.97 347.894 1570.14 349.386 1569.16 350.568C1568.17 351.765 1567.03 352.652 1565.73 353.227C1564.44 353.803 1562.98 354.091 1561.36 354.091ZM1587.51 341V336H1588.78C1589.82 336 1590.7 335.795 1591.39 335.386C1592.09 334.962 1592.65 334.227 1593.07 333.182C1593.51 332.121 1593.85 330.652 1594.07 328.773C1594.32 326.879 1594.49 324.47 1594.6 321.545L1595.23 306.091H1618.51V341H1613.14V311.091H1600.32L1599.78 323.545C1599.66 326.409 1599.4 328.932 1599.01 331.114C1598.63 333.28 1598.04 335.098 1597.26 336.568C1596.48 338.038 1595.45 339.144 1594.16 339.886C1592.88 340.629 1591.26 341 1589.32 341H1587.51ZM1632.26 341.364C1631.13 341.364 1630.17 340.962 1629.37 340.159C1628.57 339.356 1628.16 338.394 1628.16 337.273C1628.16 336.152 1628.57 335.189 1629.37 334.386C1630.17 333.583 1631.13 333.182 1632.26 333.182C1633.38 333.182 1634.34 333.583 1635.14 334.386C1635.95 335.189 1636.35 336.152 1636.35 337.273C1636.35 338.015 1636.16 338.697 1635.78 339.318C1635.41 339.939 1634.92 340.439 1634.3 340.818C1633.7 341.182 1633.01 341.364 1632.26 341.364ZM1664.7 341V294.455H1670.34V315.182H1695.15V294.455H1700.79V341H1695.15V320.182H1670.34V341H1664.7ZM1725.98 341.727C1722.62 341.727 1719.72 340.985 1717.28 339.5C1714.85 338 1712.98 335.909 1711.66 333.227C1710.36 330.53 1709.71 327.394 1709.71 323.818C1709.71 320.242 1710.36 317.091 1711.66 314.364C1712.98 311.621 1714.82 309.485 1717.16 307.955C1719.53 306.409 1722.29 305.636 1725.44 305.636C1727.26 305.636 1729.05 305.939 1730.82 306.545C1732.6 307.152 1734.21 308.136 1735.66 309.5C1737.12 310.848 1738.28 312.636 1739.14 314.864C1740.01 317.091 1740.44 319.833 1740.44 323.091V325.364H1713.53V320.727H1734.98C1734.98 318.758 1734.59 317 1733.8 315.455C1733.03 313.909 1731.92 312.689 1730.48 311.795C1729.06 310.902 1727.38 310.455 1725.44 310.455C1723.3 310.455 1721.45 310.985 1719.89 312.045C1718.35 313.091 1717.16 314.455 1716.32 316.136C1715.49 317.818 1715.07 319.621 1715.07 321.545V324.636C1715.07 327.273 1715.53 329.508 1716.44 331.341C1717.36 333.159 1718.64 334.545 1720.28 335.5C1721.91 336.439 1723.82 336.909 1725.98 336.909C1727.39 336.909 1728.66 336.712 1729.8 336.318C1730.95 335.909 1731.95 335.303 1732.78 334.5C1733.61 333.682 1734.26 332.667 1734.71 331.455L1739.89 332.909C1739.35 334.667 1738.43 336.212 1737.14 337.545C1735.85 338.864 1734.26 339.894 1732.37 340.636C1730.48 341.364 1728.35 341.727 1725.98 341.727ZM1748.6 341V306.091H1753.96V321.273H1757.51L1770.05 306.091H1776.96L1762.87 322.909L1777.14 341H1770.23L1758.78 326.273H1753.96V341H1748.6ZM1782.97 354.091V306.091H1788.15V311.636H1788.79C1789.18 311.03 1789.73 310.258 1790.43 309.318C1791.14 308.364 1792.15 307.515 1793.47 306.773C1794.8 306.015 1796.61 305.636 1798.88 305.636C1801.82 305.636 1804.41 306.371 1806.65 307.841C1808.9 309.311 1810.65 311.394 1811.9 314.091C1813.16 316.788 1813.79 319.97 1813.79 323.636C1813.79 327.333 1813.16 330.538 1811.9 333.25C1810.65 335.947 1808.9 338.038 1806.68 339.523C1804.45 340.992 1801.88 341.727 1798.97 341.727C1796.73 341.727 1794.93 341.356 1793.59 340.614C1792.24 339.856 1791.2 339 1790.47 338.045C1789.74 337.076 1789.18 336.273 1788.79 335.636H1788.34V354.091H1782.97ZM1788.24 323.545C1788.24 326.182 1788.63 328.508 1789.4 330.523C1790.18 332.523 1791.3 334.091 1792.79 335.227C1794.27 336.348 1796.09 336.909 1798.24 336.909C1800.49 336.909 1802.36 336.318 1803.86 335.136C1805.37 333.939 1806.51 332.333 1807.27 330.318C1808.04 328.288 1808.43 326.03 1808.43 323.545C1808.43 321.091 1808.05 318.879 1807.29 316.909C1806.55 314.924 1805.42 313.356 1803.9 312.205C1802.4 311.038 1800.52 310.455 1798.24 310.455C1796.06 310.455 1794.23 311.008 1792.74 312.114C1791.26 313.205 1790.14 314.735 1789.38 316.705C1788.62 318.659 1788.24 320.939 1788.24 323.545ZM1832.24 341.818C1830.03 341.818 1828.02 341.402 1826.22 340.568C1824.42 339.72 1822.99 338.5 1821.93 336.909C1820.87 335.303 1820.34 333.364 1820.34 331.091C1820.34 329.091 1820.73 327.47 1821.52 326.227C1822.3 324.97 1823.36 323.985 1824.68 323.273C1825.99 322.561 1827.45 322.03 1829.04 321.682C1830.65 321.318 1832.26 321.03 1833.88 320.818C1836 320.545 1837.72 320.341 1839.04 320.205C1840.37 320.053 1841.34 319.803 1841.95 319.455C1842.57 319.106 1842.88 318.5 1842.88 317.636V317.455C1842.88 315.212 1842.27 313.47 1841.04 312.227C1839.83 310.985 1837.99 310.364 1835.52 310.364C1832.96 310.364 1830.95 310.924 1829.49 312.045C1828.04 313.167 1827.02 314.364 1826.43 315.636L1821.34 313.818C1822.24 311.697 1823.46 310.045 1824.97 308.864C1826.5 307.667 1828.17 306.833 1829.97 306.364C1831.79 305.879 1833.58 305.636 1835.34 305.636C1836.46 305.636 1837.74 305.773 1839.2 306.045C1840.67 306.303 1842.09 306.841 1843.45 307.659C1844.83 308.477 1845.97 309.712 1846.88 311.364C1847.79 313.015 1848.24 315.227 1848.24 318V341H1842.88V336.273H1842.61C1842.24 337.03 1841.64 337.841 1840.79 338.705C1839.94 339.568 1838.81 340.303 1837.4 340.909C1835.99 341.515 1834.27 341.818 1832.24 341.818ZM1833.06 337C1835.18 337 1836.97 336.583 1838.43 335.75C1839.9 334.917 1841 333.841 1841.74 332.523C1842.5 331.205 1842.88 329.818 1842.88 328.364V323.455C1842.65 323.727 1842.15 323.977 1841.38 324.205C1840.62 324.417 1839.74 324.606 1838.74 324.773C1837.76 324.924 1836.8 325.061 1835.86 325.182C1834.93 325.288 1834.18 325.379 1833.61 325.455C1832.21 325.636 1830.91 325.932 1829.7 326.341C1828.5 326.735 1827.53 327.333 1826.79 328.136C1826.06 328.924 1825.7 330 1825.7 331.364C1825.7 333.227 1826.39 334.636 1827.77 335.591C1829.16 336.53 1830.93 337 1833.06 337ZM1872.22 341.727C1868.94 341.727 1866.13 340.955 1863.76 339.409C1861.4 337.864 1859.58 335.735 1858.31 333.023C1857.03 330.311 1856.4 327.212 1856.4 323.727C1856.4 320.182 1857.05 317.053 1858.35 314.341C1859.67 311.614 1861.5 309.485 1863.85 307.955C1866.22 306.409 1868.97 305.636 1872.12 305.636C1874.58 305.636 1876.79 306.091 1878.76 307C1880.73 307.909 1882.34 309.182 1883.6 310.818C1884.86 312.455 1885.64 314.364 1885.94 316.545H1880.58C1880.17 314.955 1879.26 313.545 1877.85 312.318C1876.46 311.076 1874.58 310.455 1872.22 310.455C1870.13 310.455 1868.29 311 1866.72 312.091C1865.16 313.167 1863.94 314.689 1863.06 316.659C1862.19 318.614 1861.76 320.909 1861.76 323.545C1861.76 326.242 1862.19 328.591 1863.03 330.591C1863.9 332.591 1865.11 334.144 1866.67 335.25C1868.25 336.356 1870.09 336.909 1872.22 336.909C1873.61 336.909 1874.88 336.667 1876.01 336.182C1877.15 335.697 1878.11 335 1878.9 334.091C1879.69 333.182 1880.25 332.091 1880.58 330.818H1885.94C1885.64 332.879 1884.89 334.735 1883.69 336.386C1882.51 338.023 1880.94 339.326 1878.99 340.295C1877.05 341.25 1874.79 341.727 1872.22 341.727ZM1907.97 341.727C1904.81 341.727 1902.05 340.977 1899.67 339.477C1897.31 337.977 1895.46 335.879 1894.12 333.182C1892.81 330.485 1892.15 327.333 1892.15 323.727C1892.15 320.091 1892.81 316.917 1894.12 314.205C1895.46 311.492 1897.31 309.386 1899.67 307.886C1902.05 306.386 1904.81 305.636 1907.97 305.636C1911.12 305.636 1913.88 306.386 1916.24 307.886C1918.62 309.386 1920.47 311.492 1921.78 314.205C1923.12 316.917 1923.78 320.091 1923.78 323.727C1923.78 327.333 1923.12 330.485 1921.78 333.182C1920.47 335.879 1918.62 337.977 1916.24 339.477C1913.88 340.977 1911.12 341.727 1907.97 341.727ZM1907.97 336.909C1910.36 336.909 1912.33 336.295 1913.88 335.068C1915.42 333.841 1916.56 332.227 1917.31 330.227C1918.05 328.227 1918.42 326.061 1918.42 323.727C1918.42 321.394 1918.05 319.22 1917.31 317.205C1916.56 315.189 1915.42 313.561 1913.88 312.318C1912.33 311.076 1910.36 310.455 1907.97 310.455C1905.57 310.455 1903.6 311.076 1902.06 312.318C1900.51 313.561 1899.37 315.189 1898.62 317.205C1897.88 319.22 1897.51 321.394 1897.51 323.727C1897.51 326.061 1897.88 328.227 1898.62 330.227C1899.37 332.227 1900.51 333.841 1902.06 335.068C1903.6 336.295 1905.57 336.909 1907.97 336.909ZM1931.97 341V306.091H1946.24C1950 306.091 1952.99 306.939 1955.2 308.636C1957.41 310.333 1958.52 312.576 1958.52 315.364C1958.52 317.485 1957.89 319.129 1956.63 320.295C1955.37 321.447 1953.76 322.227 1951.79 322.636C1953.08 322.818 1954.33 323.273 1955.54 324C1956.77 324.727 1957.78 325.727 1958.59 327C1959.39 328.258 1959.79 329.803 1959.79 331.636C1959.79 333.424 1959.34 335.023 1958.43 336.432C1957.52 337.841 1956.21 338.955 1954.52 339.773C1952.82 340.591 1950.79 341 1948.43 341H1931.97ZM1937.06 336.091H1948.43C1950.27 336.091 1951.72 335.652 1952.77 334.773C1953.81 333.894 1954.34 332.697 1954.34 331.182C1954.34 329.379 1953.81 327.962 1952.77 326.932C1951.72 325.886 1950.27 325.364 1948.43 325.364H1937.06V336.091ZM1937.06 320.727H1946.24C1947.68 320.727 1948.92 320.53 1949.95 320.136C1950.98 319.727 1951.77 319.152 1952.31 318.409C1952.87 317.652 1953.15 316.758 1953.15 315.727C1953.15 314.258 1952.54 313.106 1951.31 312.273C1950.09 311.424 1948.4 311 1946.24 311H1937.06V320.727ZM1978.18 341.818C1975.97 341.818 1973.96 341.402 1972.16 340.568C1970.36 339.72 1968.92 338.5 1967.86 336.909C1966.8 335.303 1966.27 333.364 1966.27 331.091C1966.27 329.091 1966.67 327.47 1967.45 326.227C1968.24 324.97 1969.3 323.985 1970.61 323.273C1971.93 322.561 1973.39 322.03 1974.98 321.682C1976.58 321.318 1978.2 321.03 1979.82 320.818C1981.94 320.545 1983.66 320.341 1984.98 320.205C1986.31 320.053 1987.28 319.803 1987.89 319.455C1988.51 319.106 1988.82 318.5 1988.82 317.636V317.455C1988.82 315.212 1988.2 313.47 1986.98 312.227C1985.77 310.985 1983.92 310.364 1981.45 310.364C1978.89 310.364 1976.89 310.924 1975.43 312.045C1973.98 313.167 1972.95 314.364 1972.36 315.636L1967.27 313.818C1968.18 311.697 1969.39 310.045 1970.91 308.864C1972.44 307.667 1974.11 306.833 1975.91 306.364C1977.73 305.879 1979.52 305.636 1981.27 305.636C1982.39 305.636 1983.68 305.773 1985.14 306.045C1986.61 306.303 1988.02 306.841 1989.39 307.659C1990.77 308.477 1991.91 309.712 1992.82 311.364C1993.73 313.015 1994.18 315.227 1994.18 318V341H1988.82V336.273H1988.55C1988.18 337.03 1987.58 337.841 1986.73 338.705C1985.88 339.568 1984.75 340.303 1983.34 340.909C1981.93 341.515 1980.21 341.818 1978.18 341.818ZM1979 337C1981.12 337 1982.91 336.583 1984.36 335.75C1985.83 334.917 1986.94 333.841 1987.68 332.523C1988.44 331.205 1988.82 329.818 1988.82 328.364V323.455C1988.59 323.727 1988.09 323.977 1987.32 324.205C1986.56 324.417 1985.68 324.606 1984.68 324.773C1983.7 324.924 1982.73 325.061 1981.8 325.182C1980.87 325.288 1980.12 325.379 1979.55 325.455C1978.15 325.636 1976.85 325.932 1975.64 326.341C1974.44 326.735 1973.47 327.333 1972.73 328.136C1972 328.924 1971.64 330 1971.64 331.364C1971.64 333.227 1972.33 334.636 1973.7 335.591C1975.1 336.53 1976.86 337 1979 337Z" fill="#141313"/>
<path d="M3430.91 1278.36C3430.91 1277.45 3430.98 1276.64 3431.14 1275.93C3431.27 1275.22 3431.41 1274.73 3431.55 1274.45L3436.27 1275.82C3435.94 1277.12 3435.82 1278.27 3435.91 1279.27C3436 1280.27 3436.45 1281.16 3437.25 1281.93C3438.04 1282.72 3439.32 1283.44 3441.09 1284.09L3443.82 1285.09L3478.91 1272.18V1278L3451.09 1287.64V1288L3478.91 1297.64V1303.45L3438.91 1288.64C3437.11 1287.97 3435.61 1287.14 3434.43 1286.16C3433.23 1285.17 3432.35 1284.03 3431.77 1282.73C3431.2 1281.44 3430.91 1279.98 3430.91 1278.36ZM3444 1304.51H3449V1305.78C3449 1306.82 3449.2 1307.7 3449.61 1308.39C3450.04 1309.09 3450.77 1309.65 3451.82 1310.07C3452.88 1310.51 3454.35 1310.85 3456.23 1311.07C3458.12 1311.32 3460.53 1311.49 3463.45 1311.6L3478.91 1312.23V1335.51H3444V1330.14H3473.91V1317.32L3461.45 1316.78C3458.59 1316.66 3456.07 1316.4 3453.89 1316.01C3451.72 1315.63 3449.9 1315.04 3448.43 1314.26C3446.96 1313.48 3445.86 1312.45 3445.11 1311.16C3444.37 1309.88 3444 1308.26 3444 1306.32V1304.51ZM3443.64 1349.26C3443.64 1348.13 3444.04 1347.17 3444.84 1346.37C3445.64 1345.57 3446.61 1345.16 3447.73 1345.16C3448.85 1345.16 3449.81 1345.57 3450.61 1346.37C3451.42 1347.17 3451.82 1348.13 3451.82 1349.26C3451.82 1350.38 3451.42 1351.34 3450.61 1352.14C3449.81 1352.95 3448.85 1353.35 3447.73 1353.35C3446.98 1353.35 3446.3 1353.16 3445.68 1352.78C3445.06 1352.41 3444.56 1351.92 3444.18 1351.3C3443.82 1350.7 3443.64 1350.01 3443.64 1349.26ZM3476 1419.15V1413.52C3477.62 1413.18 3479.05 1412.6 3480.27 1411.77C3481.5 1410.95 3482.53 1409.95 3483.36 1408.77C3484.21 1407.6 3484.85 1406.3 3485.27 1404.88C3485.7 1403.46 3485.91 1401.97 3485.91 1400.43C3485.91 1397.61 3485.2 1395.05 3483.77 1392.77C3482.35 1390.49 3480.25 1388.68 3477.48 1387.34C3474.7 1386 3471.3 1385.34 3467.27 1385.34C3463.24 1385.34 3459.84 1386 3457.07 1387.34C3454.3 1388.68 3452.2 1390.49 3450.77 1392.77C3449.35 1395.05 3448.64 1397.61 3448.64 1400.43C3448.64 1401.97 3448.85 1403.46 3449.27 1404.88C3449.7 1406.3 3450.33 1407.6 3451.16 1408.77C3452.01 1409.95 3453.05 1410.95 3454.27 1411.77C3455.52 1412.6 3456.94 1413.18 3458.55 1413.52V1419.15C3456.17 1418.73 3454.04 1417.96 3452.16 1416.84C3450.28 1415.71 3448.68 1414.32 3447.36 1412.65C3446.06 1410.99 3445.07 1409.12 3444.39 1407.04C3443.7 1404.98 3443.36 1402.77 3443.36 1400.43C3443.36 1396.46 3444.33 1392.93 3446.27 1389.84C3448.21 1386.74 3450.97 1384.31 3454.55 1382.54C3458.12 1380.77 3462.36 1379.88 3467.27 1379.88C3472.18 1379.88 3476.42 1380.77 3480 1382.54C3483.58 1384.31 3486.33 1386.74 3488.27 1389.84C3490.21 1392.93 3491.18 1396.46 3491.18 1400.43C3491.18 1402.77 3490.84 1404.98 3490.16 1407.04C3489.48 1409.12 3488.48 1410.99 3487.16 1412.65C3485.86 1414.32 3484.27 1415.71 3482.39 1416.84C3480.52 1417.96 3478.39 1418.73 3476 1419.15ZM3443.27 1442.17C3443.27 1438.81 3444.02 1435.91 3445.5 1433.47C3447 1431.04 3449.09 1429.17 3451.77 1427.85C3454.47 1426.55 3457.61 1425.9 3461.18 1425.9C3464.76 1425.9 3467.91 1426.55 3470.64 1427.85C3473.38 1429.17 3475.52 1431 3477.05 1433.35C3478.59 1435.72 3479.36 1438.47 3479.36 1441.62C3479.36 1443.44 3479.06 1445.24 3478.45 1447.01C3477.85 1448.78 3476.86 1450.4 3475.5 1451.85C3474.15 1453.31 3472.36 1454.47 3470.14 1455.33C3467.91 1456.19 3465.17 1456.62 3461.91 1456.62H3459.64V1429.72H3464.27V1451.17C3466.24 1451.17 3468 1450.78 3469.55 1449.99C3471.09 1449.22 3472.31 1448.11 3473.2 1446.67C3474.1 1445.25 3474.55 1443.56 3474.55 1441.62C3474.55 1439.49 3474.02 1437.64 3472.95 1436.08C3471.91 1434.53 3470.55 1433.34 3468.86 1432.51C3467.18 1431.68 3465.38 1431.26 3463.45 1431.26H3460.36C3457.73 1431.26 3455.49 1431.72 3453.66 1432.62C3451.84 1433.55 3450.45 1434.83 3449.5 1436.47C3448.56 1438.1 3448.09 1440 3448.09 1442.17C3448.09 1443.58 3448.29 1444.85 3448.68 1445.99C3449.09 1447.14 3449.7 1448.13 3450.5 1448.97C3451.32 1449.8 3452.33 1450.44 3453.55 1450.9L3452.09 1456.08C3450.33 1455.53 3448.79 1454.62 3447.45 1453.33C3446.14 1452.04 3445.11 1450.45 3444.36 1448.56C3443.64 1446.66 3443.27 1444.53 3443.27 1442.17ZM3430.91 1464.78H3478.91V1469.97H3473.36V1470.6C3473.97 1471 3474.74 1471.54 3475.68 1472.24C3476.64 1472.95 3477.48 1473.97 3478.23 1475.28C3478.98 1476.62 3479.36 1478.42 3479.36 1480.69C3479.36 1483.63 3478.63 1486.22 3477.16 1488.47C3475.69 1490.71 3473.61 1492.46 3470.91 1493.72C3468.21 1494.97 3465.03 1495.6 3461.36 1495.6C3457.67 1495.6 3454.46 1494.97 3451.75 1493.72C3449.05 1492.46 3446.96 1490.72 3445.48 1488.49C3444.01 1486.26 3443.27 1483.69 3443.27 1480.78C3443.27 1478.54 3443.64 1476.75 3444.39 1475.4C3445.14 1474.05 3446 1473.01 3446.95 1472.28C3447.92 1471.56 3448.73 1471 3449.36 1470.6V1470.15H3430.91V1464.78ZM3461.45 1470.06C3458.82 1470.06 3456.49 1470.44 3454.48 1471.22C3452.48 1471.99 3450.91 1473.12 3449.77 1474.6C3448.65 1476.09 3448.09 1477.91 3448.09 1480.06C3448.09 1482.3 3448.68 1484.17 3449.86 1485.67C3451.06 1487.19 3452.67 1488.32 3454.68 1489.08C3456.71 1489.85 3458.97 1490.24 3461.45 1490.24C3463.91 1490.24 3466.12 1489.86 3468.09 1489.1C3470.08 1488.36 3471.64 1487.23 3472.8 1485.72C3473.96 1484.22 3474.55 1482.33 3474.55 1480.06C3474.55 1477.88 3473.99 1476.04 3472.89 1474.56C3471.8 1473.07 3470.27 1471.95 3468.3 1471.19C3466.34 1470.44 3464.06 1470.06 3461.45 1470.06ZM3466.27 1508.42V1518.42C3466.27 1522.51 3465.23 1525.64 3463.16 1527.81C3461.08 1529.97 3458.45 1531.06 3455.27 1531.06C3453.18 1531.06 3451.28 1530.57 3449.57 1529.6C3447.87 1528.63 3446.52 1527.21 3445.5 1525.33C3444.5 1523.45 3444 1521.15 3444 1518.42V1503.78H3478.91V1509.15H3449V1518.42C3449 1520.54 3449.56 1522.28 3450.68 1523.65C3451.8 1525.01 3453.24 1525.69 3455 1525.69C3456.85 1525.69 3458.36 1525.01 3459.52 1523.65C3460.69 1522.28 3461.27 1520.54 3461.27 1518.42V1508.42H3466.27ZM3444 1536.6H3478.91V1541.97H3444V1536.6ZM3478.91 1551.78V1557.15H3449V1570.33H3478.91V1575.69H3449V1588.88H3478.91V1594.24H3444V1551.78H3478.91ZM3443.27 1618.67C3443.27 1615.31 3444.02 1612.41 3445.5 1609.97C3447 1607.54 3449.09 1605.67 3451.77 1604.35C3454.47 1603.05 3457.61 1602.4 3461.18 1602.4C3464.76 1602.4 3467.91 1603.05 3470.64 1604.35C3473.38 1605.67 3475.52 1607.5 3477.05 1609.85C3478.59 1612.22 3479.36 1614.97 3479.36 1618.12C3479.36 1619.94 3479.06 1621.74 3478.45 1623.51C3477.85 1625.28 3476.86 1626.9 3475.5 1628.35C3474.15 1629.81 3472.36 1630.97 3470.14 1631.83C3467.91 1632.69 3465.17 1633.12 3461.91 1633.12H3459.64V1606.22H3464.27V1627.67C3466.24 1627.67 3468 1627.28 3469.55 1626.49C3471.09 1625.72 3472.31 1624.61 3473.2 1623.17C3474.1 1621.75 3474.55 1620.06 3474.55 1618.12C3474.55 1615.99 3474.02 1614.14 3472.95 1612.58C3471.91 1611.03 3470.55 1609.84 3468.86 1609.01C3467.18 1608.18 3465.38 1607.76 3463.45 1607.76H3460.36C3457.73 1607.76 3455.49 1608.22 3453.66 1609.12C3451.84 1610.05 3450.45 1611.33 3449.5 1612.97C3448.56 1614.6 3448.09 1616.5 3448.09 1618.67C3448.09 1620.08 3448.29 1621.35 3448.68 1622.49C3449.09 1623.64 3449.7 1624.63 3450.5 1625.47C3451.32 1626.3 3452.33 1626.94 3453.55 1627.4L3452.09 1632.58C3450.33 1632.03 3448.79 1631.12 3447.45 1629.83C3446.14 1628.54 3445.11 1626.95 3444.36 1625.06C3443.64 1623.16 3443.27 1621.03 3443.27 1618.67ZM3444 1641.28H3478.91V1655.56C3478.91 1659.31 3478.06 1662.3 3476.36 1664.51C3474.67 1666.72 3472.42 1667.83 3469.64 1667.83C3467.52 1667.83 3465.87 1667.2 3464.7 1665.94C3463.55 1664.69 3462.77 1663.07 3462.36 1661.1C3462.18 1662.39 3461.73 1663.64 3461 1664.85C3460.27 1666.08 3459.27 1667.09 3458 1667.9C3456.74 1668.7 3455.2 1669.1 3453.36 1669.1C3451.58 1669.1 3449.98 1668.65 3448.57 1667.74C3447.16 1666.83 3446.05 1665.53 3445.23 1663.83C3444.41 1662.13 3444 1660.1 3444 1657.74V1641.28ZM3448.91 1646.38V1657.74C3448.91 1659.59 3449.35 1661.03 3450.23 1662.08C3451.11 1663.13 3452.3 1663.65 3453.82 1663.65C3455.62 1663.65 3457.04 1663.13 3458.07 1662.08C3459.11 1661.03 3459.64 1659.59 3459.64 1657.74V1646.38H3448.91ZM3464.27 1646.38V1655.56C3464.27 1657 3464.47 1658.23 3464.86 1659.26C3465.27 1660.29 3465.85 1661.08 3466.59 1661.62C3467.35 1662.19 3468.24 1662.47 3469.27 1662.47C3470.74 1662.47 3471.89 1661.85 3472.73 1660.62C3473.58 1659.4 3474 1657.71 3474 1655.56V1646.38H3464.27ZM3443.18 1687.49C3443.18 1685.28 3443.6 1683.27 3444.43 1681.47C3445.28 1679.67 3446.5 1678.24 3448.09 1677.18C3449.7 1676.12 3451.64 1675.59 3453.91 1675.59C3455.91 1675.59 3457.53 1675.98 3458.77 1676.77C3460.03 1677.55 3461.02 1678.61 3461.73 1679.93C3462.44 1681.24 3462.97 1682.7 3463.32 1684.29C3463.68 1685.9 3463.97 1687.51 3464.18 1689.13C3464.45 1691.25 3464.66 1692.97 3464.8 1694.29C3464.95 1695.62 3465.2 1696.59 3465.55 1697.2C3465.89 1697.82 3466.5 1698.13 3467.36 1698.13H3467.55C3469.79 1698.13 3471.53 1697.52 3472.77 1696.29C3474.02 1695.08 3474.64 1693.24 3474.64 1690.77C3474.64 1688.21 3474.08 1686.2 3472.95 1684.74C3471.83 1683.29 3470.64 1682.27 3469.36 1681.68L3471.18 1676.59C3473.3 1677.49 3474.95 1678.71 3476.14 1680.22C3477.33 1681.75 3478.17 1683.42 3478.64 1685.22C3479.12 1687.04 3479.36 1688.83 3479.36 1690.59C3479.36 1691.71 3479.23 1692.99 3478.95 1694.45C3478.7 1695.92 3478.16 1697.34 3477.34 1698.7C3476.52 1700.08 3475.29 1701.22 3473.64 1702.13C3471.98 1703.04 3469.77 1703.49 3467 1703.49H3444V1698.13H3448.73V1697.86C3447.97 1697.49 3447.16 1696.89 3446.3 1696.04C3445.43 1695.19 3444.7 1694.06 3444.09 1692.65C3443.48 1691.24 3443.18 1689.52 3443.18 1687.49ZM3448 1688.31C3448 1690.43 3448.42 1692.22 3449.25 1693.68C3450.08 1695.15 3451.16 1696.25 3452.48 1696.99C3453.8 1697.75 3455.18 1698.13 3456.64 1698.13H3461.55C3461.27 1697.9 3461.02 1697.4 3460.8 1696.63C3460.58 1695.87 3460.39 1694.99 3460.23 1693.99C3460.08 1693.01 3459.94 1692.05 3459.82 1691.11C3459.71 1690.18 3459.62 1689.43 3459.55 1688.86C3459.36 1687.46 3459.07 1686.16 3458.66 1684.95C3458.27 1683.75 3457.67 1682.78 3456.86 1682.04C3456.08 1681.31 3455 1680.95 3453.64 1680.95C3451.77 1680.95 3450.36 1681.64 3449.41 1683.02C3448.47 1684.41 3448 1686.18 3448 1688.31Z" fill="#141313"/>
<path d="M272.909 1278.36C272.909 1277.45 272.985 1276.64 273.136 1275.93C273.273 1275.22 273.409 1274.73 273.545 1274.45L278.273 1275.82C277.939 1277.12 277.818 1278.27 277.909 1279.27C278 1280.27 278.447 1281.16 279.25 1281.93C280.038 1282.72 281.318 1283.44 283.091 1284.09L285.818 1285.09L320.909 1272.18V1278L293.091 1287.64V1288L320.909 1297.64V1303.45L280.909 1288.64C279.106 1287.97 277.614 1287.14 276.432 1286.16C275.235 1285.17 274.348 1284.03 273.773 1282.73C273.197 1281.44 272.909 1279.98 272.909 1278.36ZM286 1304.51H291V1305.78C291 1306.82 291.205 1307.7 291.614 1308.39C292.038 1309.09 292.773 1309.65 293.818 1310.07C294.879 1310.51 296.348 1310.85 298.227 1311.07C300.121 1311.32 302.53 1311.49 305.455 1311.6L320.909 1312.23V1335.51H286V1330.14H315.909V1317.32L303.455 1316.78C300.591 1316.66 298.068 1316.4 295.886 1316.01C293.72 1315.63 291.902 1315.04 290.432 1314.26C288.962 1313.48 287.856 1312.45 287.114 1311.16C286.371 1309.88 286 1308.26 286 1306.32V1304.51ZM285.636 1349.26C285.636 1348.13 286.038 1347.17 286.841 1346.37C287.644 1345.57 288.606 1345.16 289.727 1345.16C290.848 1345.16 291.811 1345.57 292.614 1346.37C293.417 1347.17 293.818 1348.13 293.818 1349.26C293.818 1350.38 293.417 1351.34 292.614 1352.14C291.811 1352.95 290.848 1353.35 289.727 1353.35C288.985 1353.35 288.303 1353.16 287.682 1352.78C287.061 1352.41 286.561 1351.92 286.182 1351.3C285.818 1350.7 285.636 1350.01 285.636 1349.26ZM286 1413.34V1407.7H327.545V1397.79C327.545 1395.27 327.159 1393.25 326.386 1391.72C325.629 1390.19 324.553 1389.08 323.159 1388.38C321.765 1387.68 320.136 1387.34 318.273 1387.34C316.409 1387.34 314.803 1387.68 313.455 1388.36C312.121 1389.05 311.091 1390.16 310.364 1391.68C309.636 1393.21 309.273 1395.21 309.273 1397.7V1410.24H304.182V1397.52C304.182 1393.91 304.78 1390.95 305.977 1388.63C307.189 1386.31 308.856 1384.59 310.977 1383.47C313.098 1382.35 315.53 1381.79 318.273 1381.79C321.015 1381.79 323.462 1382.35 325.614 1383.47C327.765 1384.59 329.455 1386.32 330.682 1388.65C331.924 1390.99 332.545 1393.97 332.545 1397.61V1413.34H286ZM306.909 1391.43V1397.79L286 1386.52V1379.97L306.909 1391.43ZM320.909 1423.91V1429.27H291V1442.45H320.909V1447.82H291V1461H320.909V1466.36H286V1423.91H320.909ZM293.909 1481.52L320.909 1498.34V1504.52H286V1499.16H313L286 1482.43V1476.16H320.909V1481.52H293.909ZM305.909 1537.71H300.909V1518.44H305.909V1537.71ZM320.909 1519.71H286V1514.35H320.909V1519.71ZM320.909 1541.8H286V1536.44H320.909V1541.8ZM285.182 1561.87C285.182 1559.66 285.598 1557.65 286.432 1555.85C287.28 1554.04 288.5 1552.61 290.091 1551.55C291.697 1550.49 293.636 1549.96 295.909 1549.96C297.909 1549.96 299.53 1550.35 300.773 1551.14C302.03 1551.93 303.015 1552.98 303.727 1554.3C304.439 1555.62 304.97 1557.07 305.318 1558.66C305.682 1560.27 305.97 1561.88 306.182 1563.51C306.455 1565.63 306.659 1567.35 306.795 1568.66C306.947 1570 307.197 1570.97 307.545 1571.57C307.894 1572.2 308.5 1572.51 309.364 1572.51H309.545C311.788 1572.51 313.53 1571.89 314.773 1570.66C316.015 1569.45 316.636 1567.61 316.636 1565.14C316.636 1562.58 316.076 1560.57 314.955 1559.12C313.833 1557.66 312.636 1556.64 311.364 1556.05L313.182 1550.96C315.303 1551.87 316.955 1553.08 318.136 1554.6C319.333 1556.13 320.167 1557.79 320.636 1559.6C321.121 1561.41 321.364 1563.2 321.364 1564.96C321.364 1566.08 321.227 1567.37 320.955 1568.82C320.697 1570.29 320.159 1571.71 319.341 1573.07C318.523 1574.45 317.288 1575.6 315.636 1576.51C313.985 1577.41 311.773 1577.87 309 1577.87H286V1572.51H290.727V1572.23C289.97 1571.87 289.159 1571.26 288.295 1570.41C287.432 1569.57 286.697 1568.44 286.091 1567.03C285.485 1565.62 285.182 1563.9 285.182 1561.87ZM290 1562.69C290 1564.81 290.417 1566.6 291.25 1568.05C292.083 1569.52 293.159 1570.63 294.477 1571.37C295.795 1572.13 297.182 1572.51 298.636 1572.51H303.545C303.273 1572.28 303.023 1571.78 302.795 1571.01C302.583 1570.25 302.394 1569.37 302.227 1568.37C302.076 1567.38 301.939 1566.42 301.818 1565.48C301.712 1564.56 301.621 1563.81 301.545 1563.23C301.364 1561.84 301.068 1560.54 300.659 1559.32C300.265 1558.13 299.667 1557.16 298.864 1556.41C298.076 1555.69 297 1555.32 295.636 1555.32C293.773 1555.32 292.364 1556.01 291.409 1557.39C290.47 1558.79 290 1560.55 290 1562.69Z" fill="#141313"/>
</g>
<defs>
<clipPath id="clip0_2014_236">
<rect width="3684" height="2847" fill="white"/>
</clipPath>
</defs>
</svg>
