<svg width="977" height="717" viewBox="0 0 977 717" fill="none" xmlns="http://www.w3.org/2000/svg">
<rect width="977" height="717" fill="white"/>
<path d="M943 41H37.4106V682H943V41Z" fill="#F1F0FD"/>
<path d="M96.1389 326.38V254.482H117.193V326.38H96.1389Z" fill="#ADD9A8"/>
<path d="M96.1389 475.154V403.256H117.193V475.154H96.1389Z" fill="#ADD9A8"/>
<path d="M779.195 644.668V531.913V441.429C779.195 441.429 776.159 425.52 794.184 422.061H816.953" stroke="#D9D9D9" stroke-width="10"/>
<path d="M892.582 103.357H858.508V307.852H892.582V103.357Z" fill="#ADD9A8" stroke="#ADD9A8" stroke-width="7"/>
<path d="M892.72 425.793H858.646V630.289H892.72V425.793Z" fill="#ADD9A8" stroke="#ADD9A8" stroke-width="7"/>
<path d="M778.865 65.7883V189.497V279.923C778.865 279.923 778.865 301.631 793.683 304.396H816.676M901.999 524.377L822.078 466.443L816.676 456.35V364.127M816.676 364.127V273.286L822.078 262.501L907.654 207.635M816.676 364.127H824.71H833.021H841.087H849.365" stroke="#D9D9D9" stroke-width="10"/>
<path d="M573.452 64.5364V264.714L565.695 369.796M565.695 369.796H512.368M565.695 369.796V474.325M573.452 264.714H252.243M252.243 264.714V672.736M252.243 264.714V168.895M565.695 474.325V672.736M565.695 474.325H524.141L516.385 476.537L491.73 490.225M252.243 168.895V64.912M252.243 168.895C252.243 168.895 225.06 168.895 207.642 168.895C198.883 171.45 195.65 174.862 194.207 186.04V300.386" stroke="#D9D9D9" stroke-width="7"/>
<path d="M75 364.712V104.495C79.6191 95.6462 82.776 91.1083 91.0674 85H194.259L207.14 92.0516H251.464L259.775 85H572.534V88.0418H904.758M75 364.712V627.14C78.5337 636.628 81.8472 639.844 88.5741 644.285H903.3M75 364.712H123.064" stroke="#D9D9D9" stroke-width="9"/>
<path d="M243.793 423.996H175.145H167.848V492.222C167.848 495.875 151.992 495.587 144.064 494.99V581.342H218.658V571.241H231.361H243.793C243.319 565.79 242.275 563.55 238.252 561.83H203.253V547.437H238.252C243.793 549.928 243.793 538.441 243.793 538.441V423.996Z" fill="#ADD9A8"/>
<path d="M210.826 532.811V497.691H232.018V532.811H210.826Z" fill="#CECCD6" stroke="#988E8E"/>
<path d="M306.955 455.244H327.039H345.045V451.096H421.088V460.084H444.358V448.746H511.675V452.756H500.871V478.196L496.577 480.132V452.756H482.034V488.843V499.075H492.422L535.915 486.907H555.722V555.072H535.915V504.052H371.501V473.495H301.968L297.813 470.454V455.244H306.955Z" fill="#ADD9A8"/>
<path d="M531.619 612.314V513.178H463.311V612.314H531.619Z" fill="#F2F1D9"/>
<path d="M491.728 456.35H393.108V475.154V492.369H480.489V487.598L491.728 480.27V456.35Z" fill="#F2F1D9"/>
<path d="M531.619 612.314V513.178H463.311V612.314H531.619Z" stroke="#CFCEBD"/>
<path d="M491.728 456.35H393.108V475.154V492.369H480.489V487.598L491.728 480.27V456.35Z" stroke="#CFCEBD" stroke-width="5"/>
<path d="M560.707 562.814H534.113V620.886H560.707V562.814Z" fill="#3C3936" stroke="#3C3936"/>
<path d="M451.144 512.348H380.919V558.39H451.144V512.348Z" fill="#E9E9E9" stroke="#CFCEBD"/>
<path d="M238.668 406.021H201.547H180.493L179.108 311.171H226.756C231.05 311.033 231.05 304.534 231.05 304.534V190.188L243.793 198.761V400.905C243.793 400.905 242.037 405.388 238.668 406.021Z" fill="#ADD9A8"/>
<path d="M245.04 157.144C240.419 161.643 238.915 162.088 237.283 160.877L238.253 133.915L237.283 106.677C237.283 106.677 239.361 102.943 245.04 117.323V157.144Z" fill="#ADD9A8"/>
<path d="M259.998 174.288V106.677H373.716V129.352H270.525V174.288H259.998Z" fill="#ADD9A8"/>
<path d="M446.297 129.352V106.677H558.63V129.352H446.297Z" fill="#ADD9A8"/>
<path d="M770.413 454.415H764.596V567.792H751.16V623.514H770.413V454.415Z" fill="#ADD9A8"/>
<path d="M739.526 295.685H770.414V108.612H739.526V295.685Z" fill="#ADD9A8"/>
<path d="M770.413 454.415H764.596V567.792H751.16V623.514H770.413V454.415Z" stroke="#141313"/>
<path d="M739.526 295.685H770.414V108.612H739.526V295.685Z" stroke="#141313"/>
<path d="M590.626 620.195V567.101H684.814V388.047H669.439V392.333H611.126V335.506H669.439V339.931H684.814V311.863H688.277V156.729H588.133V153.272H543.809V181.755H561.539V256.695H509.874V181.755H468.043V193.369H352.663V181.755H310.694V256.556H258.752V181.755H276.482V163.78L262.215 153.687H231.604V161.015C226.156 160.923 215.01 160.794 214.013 161.015C213.016 161.236 213.597 156.222 214.013 153.687H144.342V226.691H174.122V314.351H206.256V413.35H174.399V501.702H146.835V574.844H218.445V568.207H237.006V623.79H97.1091V482.621H124.673V247.154H96.001V104.879H233.82V133.085H391.723V126.31H399.48V107.782H419.841V126.31H427.875V133.085H543.809V136.542H588.133V102.805H752.685V160.047H747.976V309.374H772.492V316.979H787.451V412.105H772.492V417.774H747.976V563.783H753.932V623.514H714.733V620.195H590.626Z" fill="#CECCD6" stroke="#988E8E"/>
<path d="M556.414 379.06H525.664V404.363H556.414V379.06Z" fill="#ADD9A8"/>
<path d="M276.896 389.844H527.326V445.98H294.626V476.399H369.976V566.825H441.587V620.887H273.295V566.825H281.052V476.399H285.623V445.98H276.896V389.844Z" fill="#CECCD6" stroke="#988E8E"/>
<path d="M493.391 276.052H314.157C292.738 276.052 275.374 293.385 275.374 314.766V329.975C275.374 351.357 292.738 368.69 314.157 368.69H493.391C514.811 368.69 532.175 351.357 532.175 329.975V314.766C532.175 293.385 514.811 276.052 493.391 276.052Z" stroke="#CECCD6" stroke-width="5"/>
<path d="M492.559 282.136H314.987C296.628 282.136 281.745 296.993 281.745 315.32V329.976C281.745 348.303 296.628 363.159 314.987 363.159H492.559C510.919 363.159 525.802 348.303 525.802 329.976V315.32C525.802 296.993 510.919 282.136 492.559 282.136Z" fill="#D9D9D9"/>
<path d="M492.559 282.136H314.987C296.628 282.136 281.745 296.993 281.745 315.32V329.976C281.745 348.303 296.628 363.159 314.987 363.159H492.559C510.919 363.159 525.802 348.303 525.802 329.976V315.32C525.802 296.993 510.919 282.136 492.559 282.136Z" stroke="#3C3936"/>
<path d="M310.555 356.97V288.219C310.555 286.692 311.796 285.454 313.326 285.454H497.114C498.652 285.454 499.893 286.692 499.884 288.224C499.749 312.955 499.58 357.891 499.901 359.702C500.228 361.555 377.324 360.515 313.248 359.736C311.73 359.716 310.555 358.486 310.555 356.97Z" fill="#F2F1D9"/>
<path d="M849 65L848.951 665.961" stroke="#D9D9D9" stroke-width="7"/>
<path d="M482.863 210.514H336.041C332.216 210.514 329.115 213.609 329.115 217.427V249.782C329.115 253.6 332.216 256.695 336.041 256.695H482.863C486.688 256.695 489.789 253.6 489.789 249.782V217.427C489.789 213.609 486.688 210.514 482.863 210.514Z" fill="#ADD9A8"/>
<path d="M355.987 250.472V217.842C355.987 216.314 357.228 215.076 358.757 215.076H462.918C464.447 215.076 465.688 216.314 465.688 217.842V250.472C465.688 251.999 464.447 253.238 462.918 253.238H358.757C357.228 253.238 355.987 251.999 355.987 250.472Z" fill="#E9E9E9" stroke="#CFCEBD"/>
<path d="M270.663 276.606H260.69V414.18H270.663V386.804H498.377V373.669H307.092C296.149 371.041 288.454 367.723 280.636 358.321C275.982 352.724 272.414 345.758 270.663 336.337C270.663 336.337 270.201 307.398 270.663 276.606Z" fill="#ADD9A8"/>
<path d="M555.997 292.229C555.997 292.229 549.055 275.858 536.606 275.775C532.539 278.903 532.625 283.936 535.082 296.1C536.697 301.498 538.833 306.374 539.515 310.618V336.889C539.515 336.889 534.39 353.066 525.94 361.224H555.997V292.229Z" fill="#ADD9A8"/>
<path d="M680.381 171.246H612.649V196.272H579.96V306.332L575.112 365.233H607.247V328.731H680.381V171.246Z" fill="#ADD9A8"/>
<path d="M680.381 545.532V411.137H615.419L607.247 405.469H575.112V550.371C575.112 550.371 578.204 555.625 582.73 557.008H652.54C652.54 557.008 671.178 552.243 680.381 545.532Z" fill="#ADD9A8"/>
<path d="M573.173 573.599H586.747V627.8H573.173V573.599Z" fill="#ADD9A8" stroke="#141313"/>
<path d="M792.993 102.943H837.455V226.967L807.536 247.292V281.582H792.993V102.943Z" fill="#ADD9A8"/>
<path d="M792.993 627.938V440.588H807.536V471.283L837.455 493.682V627.938H792.993Z" fill="#ADD9A8"/>
<path d="M840.778 380.304H834.406V458.01H840.778V380.304Z" fill="#ADD9A8"/>
<path d="M840.778 269.968H834.406V347.673H840.778V269.968Z" fill="#ADD9A8"/>
<path d="M732.607 355.743V375.05H729.679V358.666H729.565L724.939 361.683V358.892L729.764 355.743H732.607Z" fill="#141313"/>
<path d="M403.159 168.482V166.37L409.702 159.601C410.403 158.866 410.979 158.222 411.431 157.669C411.891 157.109 412.234 156.578 412.461 156.075C412.689 155.573 412.802 155.038 412.802 154.473C412.802 153.832 412.65 153.279 412.348 152.814C412.046 152.342 411.633 151.981 411.11 151.729C410.589 151.472 409.999 151.343 409.345 151.343C408.652 151.343 408.049 151.484 407.53 151.767C407.015 152.05 406.619 152.449 406.342 152.964C406.065 153.48 405.927 154.083 405.927 154.775H403.14C403.14 153.599 403.411 152.572 403.951 151.692C404.494 150.812 405.237 150.13 406.181 149.646C407.126 149.156 408.198 148.911 409.4 148.911C410.617 148.911 411.686 149.153 412.611 149.637C413.545 150.114 414.27 150.768 414.794 151.597C415.315 152.421 415.578 153.351 415.578 154.388C415.578 155.104 415.442 155.805 415.171 156.49C414.908 157.175 414.445 157.939 413.783 158.781C413.121 159.617 412.204 160.632 411.027 161.826L407.181 165.842V165.983H415.888V168.482H403.159Z" fill="#141313"/>
<path d="M535.8 231.241C534.501 231.241 533.343 231.018 532.324 230.572C531.31 230.126 530.506 229.507 529.916 228.715C529.329 227.917 529.016 226.993 528.972 225.943H531.936C531.975 226.515 532.166 227.011 532.512 227.433C532.864 227.847 533.324 228.168 533.892 228.394C534.457 228.62 535.088 228.733 535.781 228.733C536.543 228.733 537.216 228.602 537.8 228.338C538.393 228.074 538.856 227.706 539.188 227.235C539.524 226.757 539.69 226.207 539.69 225.585C539.69 224.937 539.524 224.369 539.188 223.879C538.861 223.382 538.379 222.992 537.745 222.709C537.116 222.427 536.354 222.285 535.46 222.285H533.825V219.91H535.46C536.177 219.91 536.806 219.781 537.349 219.523C537.895 219.266 538.324 218.907 538.632 218.448C538.942 217.983 539.094 217.44 539.094 216.817C539.094 216.22 538.958 215.702 538.69 215.262C538.424 214.816 538.047 214.467 537.557 214.216C537.072 213.964 536.498 213.839 535.836 213.839C535.207 213.839 534.617 213.955 534.072 214.187C533.529 214.414 533.088 214.74 532.748 215.168C532.41 215.589 532.227 216.095 532.202 216.686H529.376C529.409 215.642 529.717 214.725 530.301 213.933C530.894 213.141 531.675 212.522 532.645 212.076C533.615 211.629 534.692 211.406 535.875 211.406C537.116 211.406 538.185 211.648 539.086 212.132C539.992 212.61 540.69 213.248 541.183 214.046C541.679 214.844 541.925 215.718 541.92 216.667C541.925 217.748 541.623 218.665 541.011 219.42C540.407 220.174 539.601 220.679 538.595 220.937V221.088C539.878 221.283 540.873 221.792 541.579 222.615C542.291 223.439 542.643 224.46 542.637 225.679C542.643 226.741 542.346 227.693 541.748 228.535C541.158 229.378 540.349 230.041 539.321 230.525C538.296 231.002 537.122 231.241 535.8 231.241Z" fill="#141313"/>
<path d="M277.268 227.207V224.85L285.625 211.671H287.487V215.14H286.307L280.329 224.586V224.737H291.784V227.207H277.268ZM286.44 230.978V226.49L286.456 225.415V211.671H289.224V230.978H286.44Z" fill="#141313"/>
<path d="M166.779 375.313C165.596 375.313 164.532 375.089 163.587 374.635C162.649 374.176 161.9 373.549 161.339 372.749C160.779 371.953 160.48 371.04 160.442 370.017H163.276C163.345 370.847 163.713 371.527 164.381 372.061C165.048 372.594 165.847 372.863 166.779 372.863C167.522 372.863 168.18 372.694 168.753 372.354C169.332 372.008 169.786 371.533 170.113 370.93C170.447 370.327 170.614 369.638 170.614 368.867C170.614 368.081 170.443 367.379 170.104 366.762C169.763 366.149 169.294 365.665 168.696 365.311C168.105 364.959 167.424 364.78 166.657 364.774C166.071 364.774 165.482 364.874 164.891 365.076C164.299 365.277 163.82 365.54 163.455 365.869L160.782 365.471L161.868 355.743H172.502V358.242H164.296L163.682 363.643H163.795C164.173 363.278 164.673 362.974 165.296 362.728C165.926 362.484 166.6 362.36 167.318 362.36C168.495 362.36 169.543 362.639 170.462 363.201C171.388 363.759 172.115 364.523 172.644 365.49C173.179 366.453 173.444 367.559 173.437 368.809C173.444 370.059 173.16 371.176 172.587 372.155C172.021 373.136 171.234 373.908 170.226 374.475C169.225 375.034 168.076 375.313 166.779 375.313Z" fill="#141313"/>
<path d="M325.121 565.013C324.256 565.002 323.406 564.845 322.569 564.543C321.738 564.242 320.982 563.739 320.303 563.036C319.622 562.331 319.079 561.385 318.669 560.196C318.267 559.01 318.065 557.525 318.065 555.747C318.065 554.063 318.231 552.567 318.566 551.262C318.904 549.954 319.392 548.85 320.029 547.952C320.666 547.047 321.434 546.359 322.334 545.886C323.234 545.416 324.245 545.181 325.365 545.181C326.517 545.181 327.539 545.407 328.434 545.858C329.329 546.312 330.052 546.937 330.606 547.736C331.165 548.532 331.523 549.442 331.672 550.46H328.794C328.597 549.655 328.21 548.997 327.631 548.488C327.052 547.979 326.298 547.725 325.365 547.725C323.949 547.725 322.844 548.341 322.051 549.572C321.262 550.805 320.866 552.517 320.86 554.71H321.001C321.337 554.165 321.744 553.698 322.229 553.316C322.722 552.926 323.267 552.628 323.874 552.42C324.484 552.207 325.126 552.099 325.799 552.099C326.921 552.099 327.933 552.373 328.841 552.921C329.753 553.46 330.481 554.207 331.021 555.163C331.564 556.118 331.833 557.213 331.833 558.443C331.833 559.676 331.553 560.791 330.994 561.792C330.44 562.79 329.658 563.581 328.653 564.167C327.644 564.745 326.467 565.027 325.121 565.013ZM325.11 562.563C325.852 562.563 326.517 562.381 327.101 562.016C327.689 561.654 328.151 561.161 328.492 560.548C328.83 559.931 329.002 559.242 329.002 558.482C329.002 557.741 328.833 557.063 328.5 556.455C328.174 555.846 327.719 555.363 327.14 555.003C326.567 554.644 325.913 554.467 325.176 554.467C324.617 554.467 324.096 554.572 323.617 554.787C323.146 555 322.73 555.296 322.37 555.672C322.013 556.048 321.73 556.482 321.522 556.975C321.32 557.456 321.22 557.97 321.22 558.509C321.22 559.234 321.386 559.903 321.719 560.517C322.06 561.134 322.522 561.632 323.107 562.008C323.7 562.378 324.367 562.563 325.11 562.563Z" fill="#141313"/>
<path d="M395.122 427.868L403.566 411.201V411.06H393.801V408.56H406.588V411.143L398.172 427.868H395.122Z" fill="#141313"/>
<path d="M498.372 572.756C497.017 572.756 495.82 572.524 494.781 572.059C493.751 571.595 492.942 570.953 492.355 570.137C491.77 569.319 491.479 568.39 491.488 567.347C491.479 566.529 491.648 565.779 491.986 565.093C492.333 564.402 492.803 563.827 493.394 563.368C493.986 562.903 494.648 562.607 495.377 562.483V562.37C494.413 562.137 493.643 561.62 493.064 560.824C492.485 560.025 492.197 559.107 492.205 558.07C492.197 557.082 492.46 556.203 492.989 555.431C493.524 554.652 494.258 554.038 495.189 553.593C496.119 553.145 497.18 552.923 498.372 552.923C499.549 552.923 500.599 553.15 501.527 553.601C502.458 554.049 503.192 554.66 503.727 555.44C504.261 556.211 504.533 557.091 504.538 558.07C504.533 559.107 504.236 560.025 503.652 560.824C503.064 561.62 502.303 562.137 501.366 562.37V562.483C502.089 562.607 502.74 562.903 503.319 563.368C503.907 563.827 504.372 564.402 504.718 565.093C505.07 565.779 505.25 566.529 505.256 567.347C505.25 568.39 504.954 569.319 504.369 570.137C503.782 570.953 502.97 571.595 501.931 572.059C500.898 572.524 499.712 572.756 498.372 572.756ZM498.372 570.373C499.172 570.373 499.865 570.24 500.449 569.977C501.034 569.706 501.488 569.333 501.809 568.854C502.131 568.37 502.294 567.806 502.3 567.156C502.294 566.484 502.117 565.89 501.771 565.376C501.43 564.861 500.967 564.455 500.383 564.159C499.798 563.866 499.128 563.716 498.372 563.716C497.61 563.716 496.934 563.866 496.341 564.159C495.748 564.455 495.283 564.861 494.942 565.376C494.604 565.89 494.435 566.484 494.443 567.156C494.435 567.806 494.59 568.37 494.906 568.854C495.227 569.333 495.682 569.706 496.275 569.977C496.867 570.24 497.565 570.373 498.372 570.373ZM498.372 561.388C499.014 561.388 499.582 561.258 500.081 561.001C500.577 560.744 500.967 560.387 501.253 559.928C501.541 559.469 501.69 558.93 501.696 558.316C501.69 557.713 501.544 557.185 501.261 556.731C500.984 556.278 500.596 555.929 500.1 555.686C499.602 555.434 499.025 555.307 498.372 555.307C497.704 555.307 497.119 555.434 496.615 555.686C496.117 555.929 495.729 556.278 495.452 556.731C495.175 557.185 495.042 557.713 495.047 558.316C495.042 558.93 495.18 559.469 495.463 559.928C495.745 560.387 496.136 560.744 496.635 561.001C497.136 561.258 497.718 561.388 498.372 561.388Z" fill="#141313"/>
<path d="M559.184 580.098H535.637V603.603H559.184V580.098Z" stroke="white"/>
<path d="M541.03 601.529V582.221H547.922C549.429 582.221 550.676 582.495 551.662 583.042C552.651 583.587 553.391 584.337 553.884 585.285C554.374 586.228 554.618 587.29 554.618 588.471C554.618 589.66 554.372 590.727 553.873 591.679C553.383 592.619 552.64 593.368 551.646 593.921C550.657 594.469 549.413 594.74 547.914 594.74H543.174V592.27H547.651C548.601 592.27 549.371 592.107 549.964 591.781C550.554 591.449 550.989 590.996 551.266 590.423C551.543 589.851 551.682 589.201 551.682 588.471C551.682 587.744 551.543 587.096 551.266 586.53C550.989 585.965 550.551 585.52 549.953 585.199C549.363 584.881 548.582 584.721 547.612 584.721H543.947V601.529H541.03Z" fill="white"/>
<path d="M403.752 312.618C404.613 312.623 405.464 312.781 406.301 313.088C407.137 313.398 407.893 313.898 408.567 314.598C409.248 315.295 409.788 316.238 410.193 317.424C410.6 318.608 410.808 320.076 410.816 321.837C410.816 323.527 410.644 325.031 410.306 326.353C409.966 327.667 409.478 328.776 408.841 329.68C408.212 330.584 407.447 331.273 406.547 331.746C405.647 332.216 404.633 332.451 403.505 332.451C402.353 332.451 401.331 332.227 400.436 331.773C399.541 331.32 398.815 330.695 398.256 329.898C397.693 329.094 397.344 328.17 397.206 327.125H400.087C400.275 327.954 400.66 328.626 401.239 329.143C401.824 329.652 402.58 329.907 403.505 329.907C404.921 329.907 406.026 329.29 406.821 328.059C407.614 326.821 408.013 325.092 408.021 322.874H407.868C407.542 323.414 407.132 323.878 406.641 324.268C406.156 324.658 405.611 324.96 405.007 325.175C404.403 325.388 403.757 325.496 403.07 325.496C401.957 325.496 400.943 325.222 400.029 324.675C399.117 324.127 398.389 323.378 397.849 322.421C397.306 321.467 397.037 320.375 397.037 319.15C397.037 317.93 397.314 316.824 397.868 315.831C398.428 314.838 399.209 314.053 400.209 313.475C401.217 312.892 402.397 312.604 403.752 312.618ZM403.76 315.068C403.023 315.068 402.358 315.25 401.768 315.615C401.181 315.972 400.718 316.459 400.381 317.076C400.04 317.687 399.868 318.364 399.868 319.114C399.868 319.86 400.034 320.538 400.361 321.149C400.694 321.752 401.148 322.233 401.721 322.592C402.3 322.944 402.96 323.118 403.705 323.118C404.259 323.118 404.774 323.013 405.253 322.8C405.73 322.584 406.151 322.288 406.508 321.912C406.868 321.528 407.148 321.096 407.348 320.612C407.55 320.129 407.652 319.62 407.652 319.083C407.652 318.375 407.481 317.714 407.14 317.103C406.807 316.495 406.348 316.005 405.763 315.635C405.176 315.256 404.508 315.068 403.76 315.068Z" fill="#141313"/>
<path d="M898.399 344.632H865.156V395.79H898.399V344.632Z" fill="#D1D5F4"/>
<path d="M37.718 672.524L943 673.006" stroke="#BEC8D3" stroke-width="19"/>
<path d="M924 41L923.5 388.214L923 682" stroke="#BEC8D3" stroke-width="40"/>
<path d="M891.474 356.523H872.082C869.787 356.523 867.927 358.38 867.927 360.671V380.028C867.927 382.319 869.787 384.176 872.082 384.176H891.474C893.769 384.176 895.629 382.319 895.629 380.028V360.671C895.629 358.38 893.769 356.523 891.474 356.523Z" fill="#2F00FF"/>
<path d="M877.16 363.435V370.349" stroke="#E9E9E9" stroke-linecap="round" stroke-linejoin="round"/>
<path d="M885.241 363.435V370.349" stroke="#E9E9E9" stroke-linecap="round" stroke-linejoin="round"/>
<path d="M870.233 370.349H892.857" stroke="#E9E9E9" stroke-linecap="round" stroke-linejoin="round"/>
<path d="M888.702 377.262H892.165C892.165 377.262 892.741 375.304 893.087 374.035C893.204 373.576 893.32 373.114 893.32 372.652C893.32 372.193 893.204 371.731 893.087 371.269L891.472 365.509C891.126 364.356 889.971 363.435 888.702 363.435H872.543C871.931 363.435 871.344 363.679 870.909 364.11C870.477 364.541 870.233 365.128 870.233 365.739V377.262H873.696" stroke="#E9E9E9" stroke-linecap="round" stroke-linejoin="round"/>
<path d="M876.007 379.566C877.281 379.566 878.314 378.534 878.314 377.262C878.314 375.99 877.281 374.959 876.007 374.959C874.73 374.959 873.697 375.99 873.697 377.262C873.697 378.534 874.73 379.566 876.007 379.566Z" stroke="#E9E9E9" stroke-linecap="round" stroke-linejoin="round"/>
<path d="M878.314 377.262H884.085" stroke="#E9E9E9" stroke-linecap="round" stroke-linejoin="round"/>
<path d="M886.395 379.566C887.67 379.566 888.703 378.534 888.703 377.262C888.703 375.99 887.67 374.959 886.395 374.959C885.118 374.959 884.085 375.99 884.085 377.262C884.085 378.534 885.118 379.566 886.395 379.566Z" stroke="#E9E9E9" stroke-linecap="round" stroke-linejoin="round"/>
<path d="M944 54C937.645 54 349.403 54 37 54" stroke="#BEC8D3" stroke-width="26"/>
<path d="M46 41L47.0047 682" stroke="#BEC8D3" stroke-width="19"/>
<path d="M392.931 680.813C392.679 680.813 392.455 680.793 392.258 680.749C392.062 680.713 391.926 680.674 391.848 680.636L392.228 679.33C392.588 679.422 392.907 679.455 393.184 679.43C393.461 679.405 393.707 679.281 393.92 679.059C394.139 678.841 394.339 678.487 394.519 677.998L394.796 677.243L391.219 667.539H392.832L395.502 675.232H395.602L398.272 667.539H399.882L395.779 678.6C395.594 679.098 395.364 679.513 395.092 679.839C394.818 680.171 394.502 680.414 394.142 680.575C393.785 680.732 393.38 680.813 392.931 680.813ZM400.176 677.193V675.81H400.527C400.816 675.81 401.059 675.755 401.25 675.641C401.444 675.523 401.6 675.321 401.716 675.03C401.838 674.737 401.932 674.331 401.993 673.811C402.062 673.288 402.109 672.622 402.14 671.814L402.314 667.539H408.763V677.193H407.276V668.922H403.724L403.575 672.367C403.541 673.158 403.469 673.855 403.361 674.458C403.256 675.058 403.093 675.561 402.877 675.968C402.661 676.374 402.375 676.678 402.018 676.886C401.663 677.091 401.214 677.193 400.677 677.193H400.176ZM412.572 677.292C412.259 677.292 411.993 677.182 411.772 676.961C411.55 676.739 411.437 676.471 411.437 676.161C411.437 675.852 411.55 675.586 411.772 675.365C411.993 675.141 412.259 675.03 412.572 675.03C412.883 675.03 413.149 675.141 413.37 675.365C413.595 675.586 413.705 675.852 413.705 676.161C413.705 676.369 413.653 676.557 413.548 676.728C413.445 676.9 413.309 677.038 413.138 677.143C412.971 677.243 412.78 677.292 412.572 677.292ZM429.341 664.32V665.703H423.121V677.193H421.559V664.32H429.341ZM434.208 677.395C433.274 677.395 432.471 677.187 431.795 676.778C431.125 676.363 430.607 675.785 430.241 675.044C429.881 674.298 429.701 673.429 429.701 672.442C429.701 671.452 429.881 670.581 430.241 669.826C430.607 669.068 431.114 668.477 431.765 668.053C432.418 667.628 433.183 667.415 434.056 667.415C434.56 667.415 435.058 667.498 435.549 667.666C436.039 667.832 436.488 668.106 436.89 668.482C437.291 668.855 437.613 669.35 437.854 669.964C438.092 670.581 438.211 671.339 438.211 672.24V672.868H430.756V671.588H436.701C436.701 671.043 436.59 670.556 436.374 670.127C436.158 669.702 435.853 669.364 435.455 669.118C435.058 668.869 434.593 668.745 434.056 668.745C433.466 668.745 432.953 668.891 432.521 669.187C432.091 669.475 431.762 669.851 431.532 670.318C431.302 670.783 431.186 671.281 431.186 671.814V672.669C431.186 673.396 431.31 674.016 431.562 674.522C431.82 675.025 432.175 675.409 432.626 675.672C433.08 675.932 433.607 676.062 434.208 676.062C434.599 676.062 434.95 676.007 435.266 675.899C435.585 675.785 435.859 675.617 436.089 675.395C436.322 675.169 436.499 674.889 436.626 674.552L438.061 674.956C437.909 675.442 437.654 675.868 437.3 676.239C436.942 676.601 436.502 676.886 435.975 677.093C435.452 677.292 434.862 677.395 434.208 677.395ZM440.471 680.813V667.539H441.906V669.074H442.084C442.192 668.905 442.344 668.692 442.538 668.432C442.735 668.167 443.015 667.935 443.38 667.727C443.749 667.52 444.25 667.415 444.879 667.415C445.693 667.415 446.411 667.617 447.031 668.023C447.655 668.43 448.139 669.005 448.486 669.751C448.835 670.498 449.009 671.377 449.009 672.392C449.009 673.413 448.835 674.3 448.486 675.05C448.139 675.796 447.655 676.374 447.04 676.784C446.422 677.19 445.71 677.395 444.904 677.395C444.283 677.395 443.785 677.292 443.413 677.085C443.039 676.878 442.751 676.64 442.549 676.377C442.347 676.109 442.192 675.885 442.084 675.711H441.959V680.813H440.471ZM441.931 672.367C441.931 673.095 442.039 673.739 442.253 674.295C442.469 674.848 442.779 675.282 443.192 675.597C443.602 675.907 444.106 676.062 444.702 676.062C445.325 676.062 445.843 675.899 446.258 675.572C446.677 675.241 446.993 674.795 447.203 674.24C447.416 673.678 447.524 673.053 447.524 672.367C447.524 671.687 447.419 671.076 447.209 670.531C447.004 669.981 446.691 669.55 446.27 669.229C445.854 668.908 445.333 668.745 444.702 668.745C444.098 668.745 443.591 668.9 443.178 669.204C442.768 669.505 442.458 669.928 442.247 670.473C442.037 671.015 441.931 671.646 441.931 672.367ZM454.12 677.42C453.508 677.42 452.951 677.303 452.453 677.074C451.954 676.839 451.558 676.502 451.264 676.062C450.971 675.617 450.824 675.08 450.824 674.452C450.824 673.899 450.932 673.451 451.151 673.108C451.367 672.76 451.66 672.486 452.026 672.29C452.389 672.094 452.793 671.947 453.234 671.85C453.68 671.751 454.126 671.671 454.575 671.612C455.162 671.538 455.638 671.48 456.004 671.441C456.373 671.4 456.641 671.33 456.81 671.234C456.982 671.14 457.068 670.971 457.068 670.733V670.681C457.068 670.061 456.899 669.58 456.558 669.237C456.223 668.891 455.713 668.72 455.029 668.72C454.32 668.72 453.763 668.875 453.359 669.187C452.957 669.497 452.674 669.826 452.511 670.18L451.101 669.677C451.35 669.091 451.688 668.634 452.106 668.305C452.53 667.976 452.993 667.744 453.492 667.614C453.996 667.481 454.492 667.415 454.979 667.415C455.289 667.415 455.644 667.451 456.048 667.528C456.456 667.597 456.849 667.747 457.226 667.973C457.608 668.2 457.924 668.54 458.176 668.997C458.428 669.456 458.553 670.067 458.553 670.833V677.193H457.068V675.885H456.993C456.891 676.095 456.724 676.319 456.489 676.557C456.253 676.797 455.94 676.999 455.55 677.168C455.159 677.337 454.683 677.42 454.12 677.42ZM454.348 676.087C454.935 676.087 455.431 675.971 455.835 675.741C456.242 675.512 456.547 675.213 456.752 674.848C456.963 674.483 457.068 674.101 457.068 673.698V672.34C457.004 672.417 456.866 672.486 456.652 672.547C456.442 672.608 456.198 672.661 455.921 672.705C455.65 672.746 455.384 672.785 455.123 672.818C454.866 672.849 454.658 672.873 454.5 672.893C454.112 672.945 453.752 673.026 453.417 673.139C453.084 673.247 452.816 673.413 452.611 673.637C452.408 673.852 452.309 674.151 452.309 674.527C452.309 675.044 452.5 675.434 452.882 675.697C453.267 675.957 453.757 676.087 454.348 676.087ZM465.196 677.395C464.287 677.395 463.509 677.179 462.852 676.753C462.198 676.325 461.694 675.736 461.342 674.986C460.988 674.237 460.813 673.379 460.813 672.417C460.813 671.435 460.993 670.57 461.353 669.821C461.719 669.066 462.226 668.477 462.877 668.053C463.534 667.628 464.295 667.415 465.168 667.415C465.85 667.415 466.462 667.539 467.008 667.791C467.553 668.042 467.999 668.394 468.348 668.847C468.697 669.298 468.913 669.826 468.997 670.432H467.512C467.398 669.989 467.146 669.602 466.755 669.262C466.37 668.919 465.85 668.745 465.196 668.745C464.617 668.745 464.107 668.897 463.672 669.198C463.24 669.497 462.902 669.917 462.658 670.462C462.417 671.001 462.298 671.637 462.298 672.367C462.298 673.111 462.417 673.761 462.65 674.314C462.891 674.867 463.226 675.296 463.658 675.603C464.096 675.91 464.606 676.062 465.196 676.062C465.581 676.062 465.933 675.995 466.246 675.86C466.562 675.727 466.827 675.534 467.046 675.282C467.265 675.03 467.42 674.729 467.512 674.378H468.997C468.913 674.947 468.706 675.459 468.373 675.918C468.046 676.369 467.611 676.731 467.071 676.999C466.534 677.262 465.908 677.395 465.196 677.395ZM472.656 675.006L477.316 667.539H479.028V677.193H477.54V669.727L472.908 677.193H471.168V667.539H472.656V675.006ZM487.036 675.182L490.41 667.539H491.823L487.64 677.193H486.432L482.327 667.539H483.712L487.036 675.182ZM483.236 667.539V677.193H481.748V667.539H483.236ZM490.84 677.193V667.539H492.325V677.193H490.84ZM498.973 677.395C498.101 677.395 497.336 677.187 496.677 676.773C496.02 676.358 495.51 675.777 495.139 675.03C494.774 674.284 494.593 673.413 494.593 672.417C494.593 671.411 494.774 670.534 495.139 669.782C495.51 669.032 496.02 668.452 496.677 668.037C497.336 667.622 498.101 667.415 498.973 667.415C499.846 667.415 500.61 667.622 501.267 668.037C501.924 668.452 502.436 669.032 502.802 669.782C503.17 670.534 503.356 671.411 503.356 672.417C503.356 673.413 503.17 674.284 502.802 675.03C502.436 675.777 501.924 676.358 501.267 676.773C500.61 677.187 499.846 677.395 498.973 677.395ZM498.973 676.062C499.638 676.062 500.184 675.893 500.61 675.553C501.04 675.213 501.356 674.768 501.561 674.215C501.768 673.662 501.871 673.061 501.871 672.417C501.871 671.77 501.768 671.17 501.561 670.611C501.356 670.056 501.04 669.605 500.61 669.262C500.184 668.919 499.638 668.745 498.973 668.745C498.311 668.745 497.765 668.919 497.336 669.262C496.909 669.605 496.591 670.056 496.386 670.611C496.181 671.17 496.078 671.77 496.078 672.417C496.078 673.061 496.181 673.662 496.386 674.215C496.591 674.768 496.909 675.213 497.336 675.553C497.765 675.893 498.311 676.062 498.973 676.062ZM505.625 677.193V667.539H509.578C510.619 667.539 511.445 667.774 512.06 668.244C512.672 668.712 512.977 669.334 512.977 670.103C512.977 670.689 512.805 671.145 512.456 671.469C512.107 671.787 511.661 672.002 511.115 672.116C511.473 672.165 511.819 672.29 512.154 672.492C512.492 672.694 512.775 672.97 512.996 673.321C513.221 673.67 513.331 674.096 513.331 674.604C513.331 675.097 513.204 675.539 512.952 675.929C512.7 676.319 512.34 676.626 511.869 676.853C511.4 677.079 510.838 677.193 510.182 677.193H505.625ZM507.035 675.835H510.182C510.694 675.835 511.096 675.713 511.384 675.47C511.675 675.227 511.819 674.898 511.819 674.477C511.819 673.98 511.675 673.587 511.384 673.302C511.096 673.014 510.694 672.868 510.182 672.868H507.035V675.835ZM507.035 671.588H509.578C509.977 671.588 510.32 671.532 510.605 671.424C510.891 671.311 511.107 671.151 511.259 670.946C511.414 670.736 511.492 670.49 511.492 670.205C511.492 669.798 511.323 669.48 510.982 669.248C510.641 669.013 510.173 668.897 509.578 668.897H507.035V671.588ZM518.426 677.42C517.814 677.42 517.257 677.303 516.758 677.074C516.257 676.839 515.861 676.502 515.567 676.062C515.273 675.617 515.126 675.08 515.126 674.452C515.126 673.899 515.234 673.451 515.453 673.108C515.672 672.76 515.963 672.486 516.329 672.29C516.694 672.094 517.096 671.947 517.537 671.85C517.983 671.751 518.429 671.671 518.88 671.612C519.467 671.538 519.944 671.48 520.307 671.441C520.678 671.4 520.947 671.33 521.113 671.234C521.287 671.14 521.373 670.971 521.373 670.733V670.681C521.373 670.061 521.202 669.58 520.861 669.237C520.526 668.891 520.016 668.72 519.332 668.72C518.622 668.72 518.066 668.875 517.664 669.187C517.26 669.497 516.977 669.826 516.814 670.18L515.403 669.677C515.656 669.091 515.991 668.634 516.412 668.305C516.836 667.976 517.296 667.744 517.797 667.614C518.298 667.481 518.794 667.415 519.282 667.415C519.592 667.415 519.949 667.451 520.351 667.528C520.758 667.597 521.152 667.747 521.528 667.973C521.911 668.2 522.229 668.54 522.481 668.997C522.731 669.456 522.858 670.067 522.858 670.833V677.193H521.373V675.885H521.296C521.196 676.095 521.027 676.319 520.792 676.557C520.559 676.797 520.246 676.999 519.855 677.168C519.465 677.337 518.988 677.42 518.426 677.42ZM518.653 676.087C519.24 676.087 519.736 675.971 520.138 675.741C520.545 675.512 520.853 675.213 521.058 674.848C521.268 674.483 521.373 674.101 521.373 673.698V672.34C521.31 672.417 521.171 672.486 520.958 672.547C520.747 672.608 520.503 672.661 520.226 672.705C519.952 672.746 519.686 672.785 519.426 672.818C519.171 672.849 518.963 672.873 518.803 672.893C518.417 672.945 518.057 673.026 517.719 673.139C517.39 673.247 517.121 673.413 516.913 673.637C516.714 673.852 516.611 674.151 516.611 674.527C516.611 675.044 516.802 675.434 517.185 675.697C517.573 675.957 518.06 676.087 518.653 676.087Z" fill="#141313"/>
<path d="M392.931 65.084C392.679 65.084 392.455 65.063 392.258 65.0212C392.062 64.9834 391.926 64.9457 391.848 64.9081L392.228 63.6007C392.588 63.6931 392.907 63.7265 393.184 63.7014C393.461 63.6762 393.707 63.5526 393.92 63.3305C394.139 63.1126 394.339 62.7587 394.519 62.2684L394.796 61.5143L391.219 51.8105H392.832L395.502 59.5031H395.602L398.272 51.8105H399.882L395.779 62.8718C395.594 63.3703 395.364 63.7829 395.092 64.1098C394.818 64.4408 394.502 64.6861 394.142 64.8451C393.785 65.0044 393.38 65.084 392.931 65.084ZM400.176 61.4639V60.0813H400.527C400.816 60.0813 401.059 60.0246 401.25 59.9115C401.444 59.7942 401.6 59.591 401.716 59.302C401.838 59.0086 401.932 58.6024 401.993 58.0828C402.062 57.559 402.109 56.8929 402.14 56.084L402.314 51.8105H408.763V61.4639H407.276V53.1932H403.724L403.575 56.6371C403.541 57.4291 403.469 58.1268 403.361 58.7302C403.256 59.3291 403.093 59.8318 402.877 60.2383C402.661 60.6449 402.375 60.9507 402.018 61.1559C401.663 61.3613 401.214 61.4639 400.677 61.4639H400.176ZM412.572 61.5646C412.259 61.5646 411.993 61.4534 411.772 61.2314C411.55 61.0093 411.437 60.7433 411.437 60.4333C411.437 60.1233 411.55 59.857 411.772 59.635C411.993 59.4129 412.259 59.302 412.572 59.302C412.883 59.302 413.149 59.4129 413.37 59.635C413.595 59.857 413.705 60.1233 413.705 60.4333C413.705 60.6385 413.653 60.8271 413.548 60.9988C413.445 61.1705 413.309 61.3088 413.138 61.4136C412.971 61.5143 412.78 61.5646 412.572 61.5646ZM421.559 61.4639V48.5928H423.121V54.3244H429.994V48.5928H431.557V61.4639H429.994V55.7071H423.121V61.4639H421.559ZM438.535 61.665C437.604 61.665 436.801 61.4598 436.125 61.0491C435.452 60.6343 434.934 60.0561 434.568 59.3145C434.208 58.5687 434.028 57.7014 434.028 56.7126C434.028 55.7237 434.208 54.8523 434.568 54.0982C434.934 53.3397 435.443 52.749 436.092 52.3259C436.748 51.8984 437.513 51.6847 438.385 51.6847C438.89 51.6847 439.385 51.7685 439.876 51.936C440.369 52.1039 440.815 52.376 441.217 52.7532C441.621 53.126 441.942 53.6204 442.181 54.2365C442.422 54.8523 442.541 55.6106 442.541 56.5115V57.1401H435.086V55.8578H441.028C441.028 55.3133 440.92 54.8272 440.701 54.3999C440.488 53.9724 440.181 53.6351 439.782 53.3878C439.388 53.1409 438.923 53.0173 438.385 53.0173C437.793 53.0173 437.28 53.1638 436.848 53.457C436.421 53.7462 436.092 54.1234 435.859 54.5883C435.629 55.0534 435.513 55.552 435.513 56.084V56.9388C435.513 57.668 435.64 58.286 435.892 58.7929C436.147 59.2957 436.502 59.6789 436.956 59.943C437.408 60.2027 437.937 60.3326 438.535 60.3326C438.926 60.3326 439.277 60.2782 439.593 60.1692C439.912 60.0561 440.189 59.8885 440.419 59.6665C440.649 59.4403 440.829 59.1596 440.953 58.8244L442.388 59.2265C442.239 59.7127 441.984 60.1399 441.627 60.5085C441.269 60.8733 440.829 61.1581 440.305 61.3633C439.782 61.5646 439.192 61.665 438.535 61.665ZM444.801 61.4639V51.8105H446.286V56.0088H447.27L450.743 51.8105H452.658L448.754 56.4612L452.708 61.4639H450.793L447.621 57.3915H446.286V61.4639H444.801ZM454.323 65.084V51.8105H455.758V53.3439H455.935C456.043 53.1763 456.195 52.9628 456.389 52.7029C456.586 52.4391 456.866 52.2043 457.231 51.9991C457.6 51.7895 458.101 51.6847 458.73 51.6847C459.544 51.6847 460.262 51.8879 460.883 52.2944C461.506 52.7009 461.991 53.2769 462.337 54.0228C462.686 54.7686 462.86 55.6485 462.86 56.6622C462.86 57.6846 462.686 58.5709 462.337 59.3208C461.991 60.0666 461.506 60.6449 460.891 61.0555C460.273 61.4617 459.561 61.665 458.755 61.665C458.134 61.665 457.636 61.5624 457.265 61.3572C456.891 61.1476 456.603 60.9109 456.4 60.6468C456.198 60.3788 456.043 60.1568 455.935 59.9806H455.81V65.084H454.323ZM455.783 56.6371C455.783 57.3663 455.891 58.0095 456.104 58.5667C456.32 59.1198 456.63 59.5534 457.043 59.8675C457.453 60.1775 457.957 60.3326 458.553 60.3326C459.176 60.3326 459.694 60.1692 460.11 59.8424C460.528 59.5113 460.844 59.0672 461.054 58.51C461.268 57.9487 461.376 57.3243 461.376 56.6371C461.376 55.9585 461.27 55.3468 461.06 54.802C460.855 54.2531 460.542 53.8195 460.121 53.5012C459.705 53.1785 459.184 53.0173 458.553 53.0173C457.949 53.0173 457.442 53.1702 457.029 53.4761C456.619 53.7777 456.309 54.2008 456.098 54.7456C455.888 55.2859 455.783 55.9164 455.783 56.6371ZM467.972 61.6901C467.359 61.6901 466.803 61.5751 466.304 61.3445C465.805 61.11 465.409 60.7726 465.115 60.3326C464.822 59.8885 464.675 59.3523 464.675 58.7238C464.675 58.1707 464.783 57.7225 465.002 57.3787C465.218 57.0311 465.512 56.7588 465.877 56.5619C466.24 56.365 466.645 56.2181 467.085 56.1219C467.531 56.0212 467.977 55.9416 468.426 55.883C469.013 55.8075 469.49 55.7511 469.855 55.7135C470.224 55.6714 470.492 55.6023 470.661 55.5061C470.833 55.4096 470.919 55.242 470.919 55.0031V54.953C470.919 54.3327 470.75 53.851 470.409 53.5073C470.074 53.1638 469.564 52.9921 468.88 52.9921C468.171 52.9921 467.614 53.147 467.21 53.457C466.808 53.7672 466.526 54.0982 466.362 54.45L464.952 53.9473C465.201 53.3607 465.539 52.9039 465.958 52.5773C466.381 52.2463 466.844 52.0157 467.343 51.886C467.847 51.7519 468.343 51.6847 468.83 51.6847C469.141 51.6847 469.495 51.7226 469.9 51.7978C470.307 51.8691 470.7 52.0179 471.077 52.2441C471.459 52.4703 471.775 52.8118 472.027 53.2687C472.279 53.7252 472.404 54.3369 472.404 55.1037V61.4639H470.919V60.1568H470.844C470.742 60.3661 470.576 60.5904 470.34 60.8293C470.105 61.0679 469.792 61.2712 469.401 61.4388C469.01 61.6064 468.534 61.6901 467.972 61.6901ZM468.199 60.3578C468.786 60.3578 469.282 60.2425 469.686 60.0121C470.094 59.7818 470.398 59.4843 470.603 59.1198C470.814 58.7553 470.919 58.3718 470.919 57.9697V56.6122C470.855 56.6874 470.717 56.7565 470.504 56.8196C470.293 56.8782 470.049 56.9305 469.772 56.9767C469.501 57.0184 469.235 57.0563 468.974 57.0898C468.717 57.1191 468.509 57.1442 468.351 57.1653C467.963 57.2153 467.603 57.2972 467.268 57.4103C466.935 57.5192 466.667 57.6846 466.462 57.9066C466.26 58.1245 466.16 58.4221 466.16 58.7993C466.16 59.3145 466.351 59.7041 466.733 59.9682C467.118 60.2278 467.609 60.3578 468.199 60.3578ZM479.047 61.665C478.138 61.665 477.36 61.4515 476.703 61.024C476.05 60.5967 475.545 60.008 475.194 59.258C474.839 58.5081 474.664 57.6511 474.664 56.6874C474.664 55.7071 474.844 54.8418 475.205 54.0919C475.57 53.3378 476.077 52.749 476.728 52.3259C477.385 51.8984 478.147 51.6847 479.019 51.6847C479.701 51.6847 480.313 51.8105 480.859 52.0619C481.404 52.3132 481.85 52.6653 482.199 53.1177C482.549 53.5703 482.765 54.0982 482.848 54.7014H481.363C481.249 54.2617 480.997 53.8718 480.607 53.5325C480.222 53.189 479.701 53.0173 479.047 53.0173C478.468 53.0173 477.958 53.168 477.523 53.4697C477.091 53.7672 476.753 54.1881 476.509 54.7329C476.268 55.2735 476.149 55.9081 476.149 56.6371C476.149 57.3829 476.268 58.0325 476.501 58.5855C476.742 59.1386 477.077 59.568 477.509 59.8739C477.947 60.1797 478.457 60.3326 479.047 60.3326C479.432 60.3326 479.784 60.2657 480.097 60.1316C480.413 59.9975 480.679 59.8048 480.897 59.5534C481.116 59.302 481.271 59.0003 481.363 58.6483H482.848C482.765 59.2182 482.557 59.7315 482.224 60.188C481.897 60.6407 481.463 61.001 480.922 61.269C480.385 61.5331 479.759 61.665 479.047 61.665ZM488.951 61.665C488.075 61.665 487.311 61.4576 486.651 61.0428C485.997 60.628 485.485 60.0478 485.114 59.302C484.751 58.5562 484.568 57.6846 484.568 56.6874C484.568 55.6819 484.751 54.8042 485.114 54.0543C485.485 53.304 485.997 52.7217 486.651 52.3069C487.311 51.8921 488.075 51.6847 488.951 51.6847C489.823 51.6847 490.588 51.8921 491.242 52.3069C491.901 52.7217 492.413 53.304 492.776 54.0543C493.147 54.8042 493.33 55.6819 493.33 56.6874C493.33 57.6846 493.147 58.5562 492.776 59.302C492.413 60.0478 491.901 60.628 491.242 61.0428C490.588 61.4576 489.823 61.665 488.951 61.665ZM488.951 60.3326C489.613 60.3326 490.158 60.1629 490.588 59.8236C491.014 59.4842 491.33 59.0379 491.538 58.4849C491.743 57.9318 491.845 57.3328 491.845 56.6874C491.845 56.0423 491.743 55.4411 491.538 54.8839C491.33 54.3264 491.014 53.8762 490.588 53.5325C490.158 53.189 489.613 53.0173 488.951 53.0173C488.286 53.0173 487.74 53.189 487.313 53.5325C486.884 53.8762 486.568 54.3264 486.36 54.8839C486.155 55.4411 486.053 56.0423 486.053 56.6874C486.053 57.3328 486.155 57.9318 486.36 58.4849C486.568 59.0379 486.884 59.4842 487.313 59.8236C487.74 60.1629 488.286 60.3326 488.951 60.3326ZM495.599 61.4639V51.8105H499.552C500.594 51.8105 501.422 52.045 502.034 52.5143C502.647 52.9835 502.954 53.6038 502.954 54.3748C502.954 54.9613 502.78 55.4159 502.43 55.7384C502.081 56.0569 501.635 56.2726 501.09 56.3857C501.447 56.436 501.793 56.5619 502.129 56.7629C502.469 56.9639 502.749 57.2405 502.973 57.5925C503.195 57.9404 503.306 58.3676 503.306 58.8745C503.306 59.3689 503.181 59.8111 502.929 60.2007C502.677 60.5904 502.314 60.8984 501.846 61.1246C501.375 61.3508 500.813 61.4639 500.159 61.4639H495.599ZM497.009 60.1064H500.159C500.669 60.1064 501.07 59.9851 501.361 59.742C501.649 59.4989 501.796 59.1679 501.796 58.749C501.796 58.2504 501.649 57.8585 501.361 57.5737C501.07 57.2844 500.669 57.1401 500.159 57.1401H497.009V60.1064ZM497.009 55.8578H499.552C499.951 55.8578 500.295 55.8033 500.58 55.6944C500.865 55.5813 501.084 55.4223 501.234 55.2168C501.389 55.0075 501.466 54.7603 501.466 54.4752C501.466 54.0689 501.297 53.7504 500.957 53.52C500.619 53.2852 500.151 53.168 499.552 53.168H497.009V55.8578ZM508.4 61.6901C507.788 61.6901 507.231 61.5751 506.733 61.3445C506.234 61.11 505.835 60.7726 505.541 60.3326C505.248 59.8885 505.101 59.3523 505.101 58.7238C505.101 58.1707 505.212 57.7225 505.428 57.3787C505.647 57.0311 505.94 56.7588 506.303 56.5619C506.669 56.365 507.073 56.2181 507.514 56.1219C507.957 56.0212 508.406 55.9416 508.855 55.883C509.442 55.8075 509.918 55.7511 510.284 55.7135C510.653 55.6714 510.921 55.6023 511.09 55.5061C511.262 55.4096 511.348 55.242 511.348 55.0031V54.953C511.348 54.3327 511.176 53.851 510.838 53.5073C510.503 53.1638 509.99 52.9921 509.306 52.9921C508.597 52.9921 508.043 53.147 507.639 53.457C507.237 53.7672 506.951 54.0982 506.788 54.45L505.378 53.9473C505.63 53.3607 505.965 52.9039 506.386 52.5773C506.81 52.2463 507.273 52.0157 507.771 51.886C508.276 51.7519 508.772 51.6847 509.256 51.6847C509.567 51.6847 509.924 51.7226 510.328 51.7978C510.736 51.8691 511.126 52.0179 511.506 52.2441C511.888 52.4703 512.204 52.8118 512.456 53.2687C512.708 53.7252 512.833 54.3369 512.833 55.1037V61.4639H511.348V60.1568H511.273C511.171 60.3661 511.004 60.5904 510.769 60.8293C510.533 61.0679 510.22 61.2712 509.83 61.4388C509.439 61.6064 508.963 61.6901 508.4 61.6901ZM508.627 60.3578C509.215 60.3578 509.711 60.2425 510.112 60.0121C510.52 59.7818 510.827 59.4843 511.032 59.1198C511.243 58.7553 511.348 58.3718 511.348 57.9697V56.6122C511.284 56.6874 511.146 56.7565 510.932 56.8196C510.722 56.8782 510.478 56.9305 510.201 56.9767C509.93 57.0184 509.661 57.0563 509.403 57.0898C509.146 57.1191 508.938 57.1442 508.78 57.1653C508.392 57.2153 508.032 57.2972 507.697 57.4103C507.364 57.5192 507.096 57.6846 506.891 57.9066C506.688 58.1245 506.589 58.4221 506.589 58.7993C506.589 59.3145 506.78 59.7041 507.159 59.9682C507.547 60.2278 508.035 60.3578 508.627 60.3578Z" fill="#141313"/>
<path d="M910.84 320.673C910.84 320.421 910.859 320.197 910.904 320.001C910.94 319.805 910.978 319.669 911.017 319.592L912.325 319.971C912.233 320.33 912.2 320.648 912.225 320.925C912.25 321.201 912.375 321.447 912.596 321.66C912.815 321.879 913.17 322.078 913.66 322.258L914.416 322.534L924.137 318.964V320.574L916.43 323.239V323.339L924.137 326.005V327.611L913.056 323.516C912.557 323.331 912.142 323.101 911.815 322.83C911.483 322.556 911.239 322.241 911.078 321.881C910.92 321.525 910.84 321.121 910.84 320.673ZM914.466 327.904H915.851V328.256C915.851 328.543 915.907 328.787 916.02 328.977C916.139 329.171 916.342 329.326 916.632 329.442C916.926 329.564 917.333 329.658 917.854 329.718C918.378 329.788 919.045 329.835 919.854 329.865L924.137 330.039V336.477H914.466V334.992H922.752V331.447L919.3 331.297C918.508 331.264 917.81 331.192 917.206 331.084C916.605 330.979 916.101 330.816 915.693 330.601C915.286 330.385 914.981 330.1 914.774 329.743C914.569 329.389 914.466 328.941 914.466 328.405V327.904ZM914.366 340.279C914.366 339.967 914.477 339.701 914.699 339.48C914.92 339.259 915.189 339.145 915.499 339.145C915.81 339.145 916.076 339.259 916.297 339.48C916.522 339.701 916.632 339.967 916.632 340.279C916.632 340.589 916.522 340.854 916.297 341.076C916.076 341.3 915.81 341.41 915.499 341.41C915.292 341.41 915.103 341.358 914.931 341.253C914.76 341.15 914.621 341.015 914.516 340.843C914.416 340.677 914.366 340.487 914.366 340.279ZM923.331 359.606V358.049C923.78 357.955 924.176 357.795 924.514 357.565C924.854 357.338 925.14 357.062 925.37 356.736C925.605 356.412 925.783 356.053 925.899 355.66C926.018 355.267 926.076 354.855 926.076 354.429C926.076 353.649 925.879 352.942 925.483 352.311C925.09 351.681 924.508 351.18 923.741 350.809C922.971 350.439 922.029 350.256 920.912 350.256C919.796 350.256 918.854 350.439 918.087 350.809C917.319 351.18 916.738 351.681 916.342 352.311C915.948 352.942 915.751 353.649 915.751 354.429C915.751 354.855 915.81 355.267 915.926 355.66C916.045 356.053 916.22 356.412 916.45 356.736C916.685 357.062 916.973 357.338 917.311 357.565C917.657 357.795 918.051 357.955 918.497 358.049V359.606C917.837 359.49 917.247 359.277 916.727 358.967C916.206 358.655 915.763 358.27 915.397 357.808C915.037 357.349 914.762 356.832 914.574 356.257C914.383 355.687 914.289 355.076 914.289 354.429C914.289 353.331 914.558 352.355 915.095 351.501C915.632 350.644 916.397 349.972 917.389 349.482C918.378 348.993 919.552 348.747 920.912 348.747C922.273 348.747 923.447 348.993 924.439 349.482C925.431 349.972 926.193 350.644 926.73 351.501C927.267 352.355 927.536 353.331 927.536 354.429C927.536 355.076 927.442 355.687 927.253 356.257C927.065 356.832 926.788 357.349 926.422 357.808C926.062 358.27 925.622 358.655 925.101 358.967C924.583 359.277 923.993 359.49 923.331 359.606ZM914.264 365.972C914.264 365.043 914.472 364.241 914.882 363.566C915.297 362.894 915.876 362.377 916.619 362.012C917.367 361.652 918.236 361.473 919.225 361.473C920.217 361.473 921.09 361.652 921.846 362.012C922.605 362.377 923.198 362.883 923.622 363.533C924.048 364.188 924.262 364.949 924.262 365.82C924.262 366.323 924.179 366.821 924.01 367.31C923.843 367.8 923.569 368.248 923.192 368.649C922.818 369.052 922.322 369.373 921.707 369.611C921.09 369.849 920.331 369.968 919.428 369.968H918.799V362.529H920.081V368.46C920.627 368.46 921.115 368.353 921.544 368.134C921.971 367.921 922.309 367.614 922.555 367.216C922.804 366.823 922.929 366.356 922.929 365.82C922.929 365.231 922.782 364.719 922.486 364.288C922.198 363.859 921.821 363.53 921.353 363.3C920.888 363.071 920.389 362.955 919.854 362.955H918.998C918.27 362.955 917.649 363.082 917.142 363.331C916.638 363.588 916.253 363.942 915.99 364.395C915.729 364.846 915.599 365.372 915.599 365.972C915.599 366.362 915.655 366.713 915.763 367.028C915.876 367.346 916.045 367.62 916.267 367.852C916.494 368.082 916.774 368.259 917.112 368.386L916.707 369.818C916.22 369.666 915.793 369.414 915.422 369.058C915.059 368.701 914.774 368.261 914.566 367.739C914.366 367.213 914.264 366.624 914.264 365.972ZM910.84 372.224H924.137V373.659H922.6V373.833C922.769 373.944 922.982 374.093 923.242 374.287C923.508 374.483 923.741 374.765 923.949 375.128C924.156 375.498 924.262 375.996 924.262 376.624C924.262 377.437 924.059 378.153 923.652 378.775C923.245 379.395 922.669 379.878 921.921 380.227C921.173 380.573 920.292 380.747 919.275 380.747C918.253 380.747 917.364 380.573 916.613 380.227C915.865 379.878 915.286 379.397 914.876 378.781C914.469 378.164 914.264 377.453 914.264 376.649C914.264 376.029 914.366 375.534 914.574 375.161C914.782 374.788 915.02 374.5 915.283 374.298C915.552 374.099 915.776 373.944 915.951 373.833V373.709H910.84V372.224ZM919.3 373.684C918.572 373.684 917.926 373.789 917.369 374.005C916.815 374.218 916.38 374.53 916.065 374.94C915.754 375.352 915.599 375.855 915.599 376.449C915.599 377.069 915.763 377.586 916.089 378.001C916.422 378.421 916.868 378.734 917.425 378.944C917.987 379.157 918.613 379.265 919.3 379.265C919.982 379.265 920.594 379.159 921.14 378.949C921.691 378.745 922.123 378.432 922.444 378.015C922.766 377.6 922.929 377.077 922.929 376.449C922.929 375.847 922.774 375.338 922.469 374.929C922.167 374.517 921.744 374.207 921.198 373.997C920.655 373.789 920.023 373.684 919.3 373.684ZM920.635 384.292V387.057C920.635 388.188 920.347 389.054 919.774 389.654C919.198 390.251 918.469 390.553 917.588 390.553C917.009 390.553 916.483 390.417 916.009 390.149C915.538 389.881 915.164 389.488 914.882 388.968C914.605 388.448 914.466 387.812 914.466 387.057V383.009H924.137V384.494H915.851V387.057C915.851 387.643 916.006 388.125 916.317 388.503C916.627 388.88 917.026 389.068 917.513 389.068C918.026 389.068 918.444 388.88 918.766 388.503C919.09 388.125 919.25 387.643 919.25 387.057V384.292H920.635ZM914.466 392.085H924.137V393.57H914.466V392.085ZM924.137 396.282V397.767H915.851V401.412H924.137V402.894H915.851V406.542H924.137V408.024H914.466V396.282H924.137ZM914.264 414.78C914.264 413.85 914.472 413.048 914.882 412.374C915.297 411.702 915.876 411.185 916.619 410.82C917.367 410.46 918.236 410.28 919.225 410.28C920.217 410.28 921.09 410.46 921.846 410.82C922.605 411.185 923.198 411.691 923.622 412.34C924.048 412.996 924.262 413.756 924.262 414.627C924.262 415.131 924.179 415.628 924.01 416.118C923.843 416.607 923.569 417.055 923.192 417.456C922.818 417.86 922.322 418.181 921.707 418.419C921.09 418.656 920.331 418.775 919.428 418.775H918.799V411.337H920.081V417.268C920.627 417.268 921.115 417.16 921.544 416.942C921.971 416.729 922.309 416.422 922.555 416.024C922.804 415.631 922.929 415.164 922.929 414.627C922.929 414.038 922.782 413.527 922.486 413.095C922.198 412.667 921.821 412.338 921.353 412.108C920.888 411.879 920.389 411.763 919.854 411.763H918.998C918.27 411.763 917.649 411.89 917.142 412.139C916.638 412.396 916.253 412.75 915.99 413.203C915.729 413.654 915.599 414.179 915.599 414.78C915.599 415.169 915.655 415.521 915.763 415.836C915.876 416.154 916.045 416.428 916.267 416.66C916.494 416.889 916.774 417.066 917.112 417.194L916.707 418.626C916.22 418.474 915.793 418.222 915.422 417.866C915.059 417.509 914.774 417.069 914.566 416.547C914.366 416.021 914.264 415.432 914.264 414.78ZM914.466 421.032H924.137V424.981C924.137 426.018 923.902 426.845 923.431 427.456C922.962 428.067 922.339 428.374 921.569 428.374C920.982 428.374 920.525 428.2 920.2 427.851C919.882 427.505 919.666 427.058 919.552 426.513C919.502 426.869 919.378 427.215 919.176 427.55C918.973 427.89 918.696 428.169 918.344 428.393C917.995 428.614 917.569 428.725 917.059 428.725C916.566 428.725 916.123 428.601 915.732 428.349C915.342 428.097 915.034 427.738 914.807 427.268C914.58 426.798 914.466 426.236 914.466 425.584V421.032ZM915.826 422.442V425.584C915.826 426.095 915.948 426.493 916.192 426.784C916.436 427.074 916.765 427.218 917.186 427.218C917.685 427.218 918.079 427.074 918.364 426.784C918.652 426.493 918.799 426.095 918.799 425.584V422.442H915.826ZM920.081 422.442V424.981C920.081 425.379 920.137 425.719 920.245 426.004C920.358 426.289 920.519 426.507 920.724 426.657C920.935 426.814 921.181 426.892 921.466 426.892C921.874 426.892 922.192 426.72 922.425 426.38C922.66 426.043 922.777 425.575 922.777 424.981V422.442H920.081ZM914.239 433.81C914.239 433.199 914.355 432.643 914.585 432.146C914.821 431.648 915.159 431.253 915.599 430.959C916.045 430.666 916.583 430.52 917.211 430.52C917.765 430.52 918.214 430.628 918.558 430.846C918.907 431.062 919.181 431.355 919.378 431.72C919.574 432.082 919.721 432.486 919.818 432.926C919.918 433.371 919.998 433.816 920.056 434.264C920.131 434.85 920.189 435.326 920.228 435.691C920.27 436.059 920.339 436.327 920.436 436.496C920.53 436.667 920.699 436.753 920.937 436.753H920.99C921.611 436.753 922.093 436.584 922.436 436.244C922.782 435.909 922.954 435.4 922.954 434.717C922.954 434.01 922.799 433.454 922.486 433.05C922.176 432.649 921.846 432.367 921.491 432.204L921.996 430.796C922.583 431.045 923.04 431.382 923.37 431.8C923.699 432.223 923.932 432.685 924.062 433.183C924.195 433.686 924.262 434.181 924.262 434.668C924.262 434.977 924.226 435.331 924.148 435.735C924.079 436.142 923.929 436.534 923.702 436.91C923.475 437.292 923.134 437.607 922.677 437.859C922.217 438.11 921.605 438.235 920.838 438.235H914.466V436.753H915.776V436.678C915.566 436.576 915.342 436.41 915.103 436.175C914.862 435.94 914.66 435.627 914.491 435.237C914.322 434.847 914.239 434.372 914.239 433.81ZM915.574 434.037C915.574 434.623 915.691 435.118 915.92 435.522C916.15 435.929 916.45 436.233 916.815 436.437C917.181 436.648 917.563 436.753 917.968 436.753H919.328C919.25 436.689 919.181 436.551 919.12 436.338C919.059 436.128 919.007 435.884 918.962 435.608C918.921 435.337 918.882 435.071 918.849 434.811C918.818 434.554 918.793 434.347 918.774 434.189C918.721 433.802 918.641 433.443 918.527 433.108C918.419 432.776 918.253 432.508 918.029 432.303C917.813 432.101 917.513 432.002 917.137 432.002C916.619 432.002 916.228 432.193 915.965 432.574C915.704 432.959 915.574 433.448 915.574 434.037Z" fill="#141313"/>
<path d="M37 320.673C37 320.421 37.0211 320.197 37.0629 320.001C37.1008 319.805 37.1385 319.669 37.1762 319.592L38.486 319.971C38.3934 320.33 38.3599 320.648 38.3851 320.925C38.4103 321.201 38.5342 321.447 38.7566 321.66C38.9749 321.879 39.3295 322.078 39.8207 322.258L40.5761 322.534L50.2971 318.964V320.574L42.5909 323.239V323.339L50.2971 326.005V327.611L39.2162 323.516C38.7167 323.331 38.3034 323.101 37.976 322.83C37.6444 322.556 37.3986 322.241 37.2394 321.881C37.0798 321.525 37 321.121 37 320.673ZM40.6265 327.904H42.0116V328.256C42.0116 328.543 42.0684 328.786 42.1817 328.977C42.2992 329.171 42.5028 329.326 42.7923 329.442C43.0862 329.564 43.4931 329.658 44.0137 329.718C44.5384 329.788 45.2057 329.835 46.016 329.865L50.2971 330.039V336.477H40.6265V334.992H48.912V331.447L45.462 331.297C44.6686 331.264 43.9696 331.192 43.3652 331.084C42.7651 330.979 42.2615 330.816 41.8543 330.601C41.4471 330.385 41.1407 330.1 40.9351 329.743C40.7293 329.389 40.6265 328.941 40.6265 328.405V327.904ZM40.5257 340.279C40.5257 339.967 40.637 339.701 40.8595 339.48C41.0819 339.259 41.3484 339.145 41.659 339.145C41.9695 339.145 42.2363 339.259 42.4587 339.48C42.6812 339.701 42.7923 339.967 42.7923 340.279C42.7923 340.589 42.6812 340.854 42.4587 341.076C42.2363 341.3 41.9695 341.41 41.659 341.41C41.4534 341.41 41.2645 341.358 41.0925 341.253C40.9204 341.15 40.7819 341.015 40.6769 340.843C40.5761 340.677 40.5257 340.487 40.5257 340.279ZM40.6265 357.999V356.44H52.1355V353.699C52.1355 353.002 52.0285 352.444 51.8144 352.021C51.6047 351.598 51.3066 351.291 50.9204 351.097C50.5343 350.903 50.083 350.809 49.5669 350.809C49.0505 350.809 48.6056 350.903 48.2322 351.092C47.8626 351.282 47.5773 351.589 47.3759 352.01C47.1742 352.433 47.0737 352.986 47.0737 353.674V357.142H45.6634V353.625C45.6634 352.626 45.829 351.808 46.1606 351.166C46.4964 350.525 46.9582 350.049 47.5457 349.739C48.1333 349.43 48.807 349.275 49.5669 349.275C50.3265 349.275 51.0044 349.43 51.6005 349.739C52.1964 350.049 52.6646 350.527 53.0045 351.172C53.3485 351.819 53.5206 352.643 53.5206 353.649V357.999H40.6265ZM46.4188 351.94V353.699L40.6265 350.583V348.771L46.4188 351.94ZM50.2971 360.922V362.404H42.0116V366.049H50.2971V367.534H42.0116V371.179H50.2971V372.661H40.6265V360.922H50.2971ZM42.8175 376.853L50.2971 381.504V383.213H40.6265V381.731H48.1061L40.6265 377.105V375.371H50.2971V376.853H42.8175ZM46.1418 392.391H44.7567V387.063H46.1418V392.391ZM50.2971 387.414H40.6265V385.932H50.2971V387.414ZM50.2971 393.523H40.6265V392.04H50.2971V393.523ZM40.3999 399.072C40.3999 398.461 40.5152 397.906 40.7462 397.408C40.9811 396.907 41.3191 396.512 41.7598 396.219C42.2047 395.926 42.7419 395.779 43.3715 395.779C43.9256 395.779 44.3746 395.887 44.719 396.105C45.0672 396.324 45.3401 396.614 45.5373 396.979C45.7345 397.344 45.8816 397.745 45.978 398.185C46.0789 398.63 46.1587 399.075 46.2174 399.526C46.293 400.112 46.3495 400.588 46.3872 400.95C46.4293 401.321 46.4986 401.589 46.595 401.755C46.6917 401.929 46.8595 402.015 47.0989 402.015H47.149C47.7704 402.015 48.253 401.843 48.5973 401.503C48.9414 401.169 49.1134 400.66 49.1134 399.977C49.1134 399.269 48.9583 398.713 48.6477 398.312C48.3369 397.908 48.0053 397.626 47.6529 397.463L48.1566 396.056C48.7441 396.307 49.2018 396.642 49.5289 397.062C49.8605 397.485 50.0916 397.944 50.2215 398.445C50.3558 398.945 50.4232 399.44 50.4232 399.927C50.4232 400.237 50.3852 400.593 50.3099 400.994C50.2384 401.401 50.0894 401.794 49.8627 402.17C49.6361 402.551 49.294 402.869 48.8364 403.121C48.379 403.37 47.7662 403.497 46.998 403.497H40.6265V402.015H41.936V401.937C41.7263 401.838 41.5016 401.669 41.2623 401.434C41.0232 401.202 40.8196 400.889 40.6517 400.499C40.4838 400.109 40.3999 399.634 40.3999 399.072ZM41.7346 399.299C41.7346 399.885 41.8501 400.381 42.0809 400.781C42.3116 401.188 42.6097 401.495 42.9748 401.7C43.34 401.91 43.7242 402.015 44.127 402.015H45.4869C45.4115 401.951 45.3423 401.813 45.2791 401.6C45.2204 401.39 45.168 401.146 45.1218 400.87C45.0799 400.596 45.042 400.331 45.0085 400.071C44.9791 399.816 44.9539 399.609 44.9328 399.449C44.8827 399.064 44.8007 398.705 44.6874 398.367C44.5782 398.038 44.4126 397.77 44.1901 397.563C43.9719 397.364 43.6738 397.261 43.2959 397.261C42.7798 397.261 42.3895 397.452 42.1249 397.834C41.8648 398.221 41.7346 398.707 41.7346 399.299Z" fill="#141313"/>
</svg>
