<svg xmlns="http://www.w3.org/2000/svg" viewBox="0 0 977 704" role="img" aria-labelledby="title desc">
  <title id="title">Схема территории ДВГУПС</title>
  <desc id="desc">Схема корпусов 1-9, парковки и прилегающих улиц.</desc>
  <rect width="977" height="704" fill="#eff0fb"/>
  <rect x="39" y="41" width="903" height="638" fill="#b8c3cb"/>
  <rect x="54" y="72" width="846" height="592" fill="#edf0fa"/>
  <g fill="none" stroke="#f9f9f8" stroke-width="9" stroke-linecap="round" stroke-linejoin="round">
    <path d="M82 86H892M82 650H892M76 86V638M252 86V664M568 86V664M849 72V664"/>
    <path d="M80 90C92 76 96 75 118 75H196L210 83H255"/>
    <path d="M195 300V190C195 176 203 169 216 169H260"/>
    <path d="M260 266H545C565 266 575 281 575 305V645"/>
    <path d="M260 390H568M260 480H568M806 75V278C806 292 816 300 828 300H850"/>
    <path d="M850 250L904 210M850 430C823 430 785 430 785 462V664M850 430L904 486"/>
    <path d="M82 360H255M255 454H568M568 410H720C746 410 766 388 766 352"/>
  </g>
  <g fill="#aed4aa">
    <rect x="260" y="106" width="114" height="24"/>
    <rect x="447" y="106" width="113" height="24"/>
    <rect x="614" y="170" width="67" height="25"/>
    <rect x="576" y="194" width="105" height="172"/>
    <rect x="576" y="409" width="106" height="148"/>
    <rect x="97" y="254" width="22" height="73"/>
    <rect x="97" y="404" width="22" height="74"/>
    <rect x="148" y="424" width="96" height="150"/>
    <rect x="296" y="452" width="198" height="25"/>
    <rect x="794" y="102" width="44" height="180"/>
    <rect x="794" y="425" width="44" height="206"/>
    <rect x="858" y="102" width="36" height="209"/>
    <rect x="858" y="425" width="36" height="206"/>
    <rect x="574" y="566" width="14" height="62"/>
  </g>
  <rect x="329" y="211" width="161" height="45" rx="7" fill="#7dbc78"/>
  <rect x="356" y="216" width="110" height="37" fill="#e7e9e8"/>
  <path d="M314 279H505C526 279 540 296 540 322V335C540 360 526 374 505 374H314C291 374 276 360 276 335V322C276 296 291 279 314 279Z" fill="#d9dcde" stroke="#ffffff" stroke-width="5"/>
  <rect x="311" y="285" width="190" height="75" fill="#f4f2d4"/>
  <g fill="#d6d5e2" stroke="#8f8d9a" stroke-width="2">
    <path d="M97 104H235V153H214V191H176V314H207V413H176V483H146V575H237V624H97Z"/>
    <path d="M261 97H392V111H421V97H560V135H544V154H566V258H469V213H355V258H261V198H239V154H261Z"/>
    <rect x="469" y="154" width="100" height="104"/>
    <rect x="280" y="153" width="72" height="104"/>
    <path d="M588 103H753V313H738V438H789V582H756V622H592V567H681V409H610V335H587Z"/>
    <path d="M274 390H528V447H274Z"/>
    <path d="M273 475H370V567H442V622H273Z"/>
    <rect x="464" y="514" width="68" height="99" fill="#f4f2d4"/>
  </g>
  <rect x="535" y="581" width="28" height="41" fill="#6c625c"/>
  <text x="549" y="608" text-anchor="middle" font-family="Arial, sans-serif" font-size="28" fill="#ffffff">P</text>
  <rect x="868" y="354" width="28" height="28" rx="4" fill="#0b5f6b"/>
  <text x="882" y="373" text-anchor="middle" font-family="Arial, sans-serif" font-size="10" font-weight="700" fill="#fff">bus</text>
  <g font-family="Arial, sans-serif" fill="#111" font-weight="700" font-size="30" text-anchor="middle">
    <text x="732" y="376">1</text>
    <text x="410" y="169">2</text>
    <text x="537" y="230">3</text>
    <text x="286" y="230">4</text>
    <text x="168" y="376">5</text>
    <text x="326" y="566">6</text>
    <text x="402" y="426">7</text>
    <text x="499" y="576">8</text>
    <text x="404" y="333">9</text>
  </g>
  <g font-family="Arial, sans-serif" font-size="18" fill="#222">
    <text x="392" y="63">ул. Некрасова</text>
    <text x="392" y="678">ул. Герасимова</text>
    <text x="48" y="386" transform="rotate(-90 48 386)">ул. Ленина</text>
    <text x="922" y="318" transform="rotate(90 922 318)">ул. Серышева</text>
  </g>
</svg>
